<svg width="32" height="32" viewBox="0 0 32 32" fill="none" xmlns="http://www.w3.org/2000/svg">
<g clip-path="url(#clip0_115_59)">
<path d="M32 16C32 7.16344 24.8366 0 16 0C7.16344 0 0 7.16344 0 16C0 24.8366 7.16344 32 16 32C24.8366 32 32 24.8366 32 16Z" fill="white"/>
<path d="M21.0026 7.33526C20.8383 7.19943 20.6455 7.09986 20.4375 7.04344C20.2296 6.98702 20.0115 6.97509 19.7984 7.00849L7.42355 8.94398C6.78131 9.04221 6.19651 9.36007 5.77494 9.84006C5.35336 10.3201 5.12285 10.9305 5.12508 11.561V12.7734C5.12508 12.9012 5.17744 13.0238 5.27066 13.1142C5.36387 13.2046 5.49029 13.2554 5.62211 13.2554H21.0298C21.1616 13.2554 21.288 13.2046 21.3812 13.1142C21.4744 13.0238 21.5268 12.9012 21.5268 12.7734V8.43603C21.527 8.22666 21.4802 8.01976 21.3897 7.82968C21.2991 7.6396 21.1671 7.47089 21.0026 7.33526Z" fill="url(#paint0_linear_115_59)"/>
<path d="M22.5208 10.8457H6.61613C6.2208 10.8461 5.8418 10.9986 5.56226 11.2697C5.28273 11.5407 5.12549 11.9082 5.12506 12.2916V22.8947C5.12587 23.5336 5.38796 24.146 5.85382 24.5978C6.31969 25.0496 6.95131 25.3037 7.61015 25.3045H22.5208C23.1797 25.3037 23.8113 25.0496 24.2772 24.5978C24.743 24.1461 25.0051 23.5336 25.0059 22.8947V13.2555C25.0052 12.6166 24.7431 12.0041 24.2772 11.5523C23.8113 11.1005 23.1797 10.8464 22.5208 10.8457Z" fill="url(#paint1_linear_115_59)"/>
<path d="M25.0059 14.7012H18.5446C17.8874 14.7039 17.2581 14.959 16.7943 15.4107C16.3306 15.8623 16.0703 16.4737 16.0703 17.111C16.0703 17.7483 16.3306 18.3597 16.7943 18.8113C17.2581 19.2629 17.8874 19.518 18.5446 19.5208H25.0059C25.2695 19.5205 25.5221 19.4189 25.7085 19.2381C25.8949 19.0574 25.9997 18.8124 26 18.5568V15.6651C25.9997 15.4095 25.8949 15.1645 25.7085 14.9838C25.5221 14.8031 25.2695 14.7014 25.0059 14.7012Z" fill="url(#paint2_linear_115_59)"/>
<path d="M18.5446 18.0749C19.0936 18.0749 19.5387 17.6434 19.5387 17.111C19.5387 16.5787 19.0936 16.1471 18.5446 16.1471C17.9956 16.1471 17.5506 16.5787 17.5506 17.111C17.5506 17.6434 17.9956 18.0749 18.5446 18.0749Z" fill="url(#paint3_linear_115_59)"/>
</g>
<defs>
<linearGradient id="paint0_linear_115_59" x1="6.16351" y1="10.1227" x2="21.3289" y2="10.1227" gradientUnits="userSpaceOnUse">
<stop stop-color="#37AA79"/>
<stop offset="1" stop-color="#398A70"/>
</linearGradient>
<linearGradient id="paint1_linear_115_59" x1="6.70265" y1="18.0751" x2="25.2409" y2="18.0751" gradientUnits="userSpaceOnUse">
<stop stop-color="#34CA82"/>
<stop offset="1" stop-color="#37A477"/>
</linearGradient>
<linearGradient id="paint2_linear_115_59" x1="16.8572" y1="17.111" x2="26.117" y2="17.111" gradientUnits="userSpaceOnUse">
<stop stop-color="#FED200"/>
<stop offset="1" stop-color="#F59815"/>
</linearGradient>
<linearGradient id="paint3_linear_115_59" x1="17.5262" y1="17.111" x2="19.4841" y2="17.111" gradientUnits="userSpaceOnUse">
<stop stop-color="white"/>
<stop offset="1" stop-color="#F2EBE6"/>
</linearGradient>
<clipPath id="clip0_115_59">
<rect width="32" height="32" fill="white"/>
</clipPath>
</defs>
</svg>
