<svg width="13" height="14" viewBox="0 0 13 14" fill="none" xmlns="http://www.w3.org/2000/svg">
<rect y="0.536133" width="12.9231" height="12.9231" rx="6.46154" fill="#FE4A31"/>
<path d="M10.3324 6.63501C10.4918 6.47975 10.548 6.2519 10.4793 6.04009C10.4104 5.82828 10.231 5.67708 10.0106 5.64499L8.05099 5.36025C7.96753 5.3481 7.89541 5.29576 7.85814 5.22007L6.98205 3.44456C6.88368 3.24507 6.68403 3.12109 6.46152 3.12109C6.23918 3.12109 6.03952 3.24507 5.94115 3.44456L5.0649 5.22024C5.02763 5.29592 4.95535 5.34826 4.87189 5.36042L2.91228 5.64515C2.69204 5.67708 2.51248 5.82844 2.44361 6.04025C2.37489 6.25206 2.43113 6.47992 2.59043 6.63517L4.00828 8.0172C4.06873 8.07619 4.09644 8.16111 4.08218 8.24408L3.74769 10.1956C3.71803 10.3674 3.76309 10.5345 3.87426 10.6662C4.04701 10.8715 4.3486 10.9341 4.58975 10.8074L6.34225 9.8859C6.4155 9.84749 6.50771 9.84781 6.5808 9.8859L8.33346 10.8074C8.4187 10.8523 8.50962 10.8749 8.60345 10.8749C8.77474 10.8749 8.93713 10.7988 9.04878 10.6662C9.16012 10.5345 9.20501 10.367 9.17535 10.1956L8.8407 8.24408C8.82644 8.16095 8.85415 8.07619 8.9146 8.0172L10.3324 6.63501Z" fill="white"/>
</svg>
