<svg width="32" height="33" viewBox="0 0 32 33" fill="none" xmlns="http://www.w3.org/2000/svg">
<rect y="0.75" width="32" height="32" rx="16" fill="white"/>
<path d="M22.3281 15.3506C22.3281 18.8401 19.4895 21.6787 16 21.6787H9.67188V20.2725C10.3008 20.2725 10.8502 19.844 11.0232 19.2583C10.1498 18.1473 9.67188 16.7726 9.67188 15.3506C9.67188 11.8611 12.5105 9.02246 16 9.02246C19.4895 9.02246 22.3281 11.8611 22.3281 15.3506Z" fill="#FED843"/>
<path d="M22.3281 15.3506C22.3281 11.8611 19.4895 9.02246 16 9.02246V21.6787C19.4895 21.6787 22.3281 18.8401 22.3281 15.3506Z" fill="#FABE2C"/>
<path d="M24.6063 18.4021C23.5797 21.3271 21.1188 23.5349 18.1094 24.224C17.9125 24.2802 17.7156 24.3224 17.5189 24.3505L17.4339 23.8304C17.3573 23.3617 17.649 22.9107 18.1083 22.7899C18.1087 22.7898 18.109 22.7897 18.1094 22.7896C20.1686 22.2081 21.9045 20.7919 22.8763 18.8825C23.1476 18.3496 23.7736 18.1009 24.336 18.3043L24.6063 18.4021Z" fill="#474F54"/>
<path d="M24.6203 12.2989L24.339 12.3973C23.7766 12.6083 23.158 12.3552 22.8907 11.8208C21.6132 9.35925 19.0261 7.61611 16 7.61611C13.0749 7.61611 10.4454 9.23325 9.12344 11.8349C8.8421 12.3552 8.22344 12.5942 7.67514 12.3973L7.3938 12.2989C7.44996 12.1442 7.50625 11.9896 7.57661 11.8349C9.01103 8.40361 12.3157 6.20986 16 6.1958C20.0051 6.1958 23.3822 8.79821 24.6203 12.2989Z" fill="#575F64"/>
<path d="M8.71572 12.7771C8.82817 12.4537 8.96875 12.1302 9.12344 11.835H6.10937C4.94209 11.835 4 12.7771 4 13.9443V16.7568C4 17.924 4.94209 18.8662 6.10937 18.8662H8.99692L8.70166 17.9521C8.12505 16.1942 8.13892 14.4083 8.71572 12.7771Z" fill="#474F54"/>
<path d="M17.3022 22.9713C17.2967 22.9721 17.2908 22.9726 17.2851 22.9726H17.2795C16.8718 23.0429 16.4501 23.0852 16.0141 23.0852C14.8468 23.0852 13.8906 24.0273 13.8906 25.1945C13.8906 26.3617 14.8327 27.3039 16 27.3039C17.1673 27.3039 18.1094 26.3617 18.1094 25.1945V22.7898C17.845 22.8594 17.5804 22.929 17.3022 22.9713Z" fill="#474F54"/>
<path d="M12.4844 14.6477H13.8906V16.054H12.4844V14.6477Z" fill="#575F64"/>
<path d="M15.2969 14.6477H16.7031V16.054H15.2969V14.6477Z" fill="#575F64"/>
<path d="M18.1094 14.6477H19.5156V16.054H18.1094V14.6477Z" fill="#474F54"/>
<path d="M17.2823 22.9721H17.2795C16.8718 23.0424 16.4501 23.0847 16.0141 23.0847C16.0092 23.0847 16.0048 23.086 16 23.086V27.3034C17.1673 27.3034 18.1094 26.3612 18.1094 25.194V22.7893C17.846 22.8586 17.5824 22.928 17.3053 22.9703C17.2978 22.9715 17.2899 22.9721 17.2823 22.9721Z" fill="#32393F"/>
<path d="M24.6203 12.2989L24.339 12.3973C23.7766 12.6083 23.158 12.3552 22.8907 11.8208C21.6132 9.35925 19.0261 7.61611 16 7.61611V6.1958C20.0051 6.1958 23.3822 8.79821 24.6203 12.2989Z" fill="#474F54"/>
<path d="M16 14.6472H16.7031V16.0535H16V14.6472Z" fill="#474F54"/>
<path d="M28 13.9443C28 12.7771 27.0579 11.835 25.8906 11.835H22.8907L23.2984 12.7912C23.4532 13.199 23.5657 13.6349 23.6359 14.0709C23.847 15.3787 23.7204 16.7146 23.2843 17.924L22.8907 18.8662H25.8906C27.0579 18.8662 28 17.924 28 16.7568V13.9443Z" fill="#32393F"/>
</svg>
