<svg width="80" height="30" viewBox="0 0 80 30" fill="none" xmlns="http://www.w3.org/2000/svg">
<g clip-path="url(#clip0_4_2970)">
<path fill-rule="evenodd" clip-rule="evenodd" d="M78.679 30C79.2526 30 79.6154 29.669 79.6154 29.1257C79.6154 28.0221 78.2994 28.4296 78.2994 27.7844C78.2994 27.5722 78.4344 27.4364 78.6621 27.4364C78.8899 27.4364 79.0333 27.5722 79.0333 27.7759V27.8778H79.5563V27.7674C79.5563 27.2836 79.1936 26.9695 78.6537 26.9695C78.1138 26.9695 77.7595 27.2666 77.7595 27.7929C77.7595 28.871 79.0755 28.506 79.0755 29.1511C79.0755 29.3803 78.9068 29.5331 78.6706 29.5331C78.4259 29.5331 78.2657 29.3719 78.2657 29.1342V29.0323H77.7342V29.1427C77.7342 29.6605 78.1138 30 78.679 30ZM76.2411 27.4533C76.5026 27.4533 76.6798 27.6146 76.6798 27.8778V28.2428H75.8025V27.8778C75.8025 27.6146 75.9796 27.4533 76.2411 27.4533ZM77.2197 28.6927V27.9033C77.2197 27.343 76.8232 26.9695 76.2496 26.9695C75.6759 26.9695 75.2626 27.3345 75.2626 27.8948V29.0832C75.2626 29.6435 75.6506 30.0085 76.2496 30.0085C76.8485 30.0085 77.2197 29.652 77.2197 29.1002V29.0408H76.6798V29.0917C76.6798 29.3549 76.5026 29.5162 76.2496 29.5162C75.9712 29.5162 75.8025 29.3464 75.8025 29.0917V28.7012H77.2197V28.6927ZM74.0732 29.9321H74.613V27.0374H74.0732V29.9321ZM74.3431 26.5196C74.5371 26.5196 74.6721 26.3837 74.6721 26.1885C74.6721 25.9932 74.5371 25.8574 74.3431 25.8574C74.1491 25.8574 74.0141 25.9932 74.0141 26.1885C74.0141 26.3837 74.1491 26.5196 74.3431 26.5196ZM73.4405 26.9695C73.1284 26.9695 72.9175 27.1477 72.8247 27.4533H72.791V27.0459H72.2511V29.9406H72.791V28.1919C72.791 27.8693 73.0187 27.5892 73.4152 27.5892H73.5164V26.978H73.4321L73.4405 26.9695ZM70.6399 27.4533C70.9014 27.4533 71.0785 27.6146 71.0785 27.8778V28.2428H70.1928V27.8778C70.1928 27.6146 70.3699 27.4533 70.6399 27.4533ZM71.6184 28.6927V27.9033C71.6184 27.343 71.2304 26.9695 70.6483 26.9695C70.0662 26.9695 69.6529 27.3345 69.6529 27.8948V29.0832C69.6529 29.6435 70.0494 30.0085 70.6483 30.0085C71.2472 30.0085 71.6184 29.652 71.6184 29.1002V29.0408H71.0785V29.0917C71.0785 29.3549 70.9014 29.5162 70.6483 29.5162C70.3699 29.5162 70.1928 29.3464 70.1928 29.0917V28.7012H71.6184V28.6927ZM67.873 29.9321H68.5731L69.307 27.0374H68.7334L68.2526 29.3294H68.2188L67.738 27.0374H67.1391L67.8814 29.9321H67.873ZM66.0678 29.9321H66.6076V27.0374H66.0678V29.9321ZM66.3461 26.5196C66.5486 26.5196 66.6751 26.3837 66.6751 26.1885C66.6751 25.9932 66.5402 25.8574 66.3461 25.8574C66.1521 25.8574 66.0172 25.9932 66.0172 26.1885C66.0172 26.3837 66.1521 26.5196 66.3461 26.5196ZM65.2495 29.9321H65.5194V29.4313H65.3845C65.2242 29.4313 65.1314 29.3294 65.1314 29.1851V25.8829H64.5915V29.3294C64.5915 29.6944 64.8615 29.9321 65.2495 29.9321ZM63.0056 27.4533C63.2671 27.4533 63.4443 27.6146 63.4443 27.8778V28.2428H62.567V27.8778C62.567 27.6146 62.7441 27.4533 63.0056 27.4533ZM63.9842 28.6927V27.9033C63.9842 27.343 63.5961 26.9695 63.0141 26.9695C62.432 26.9695 62.0271 27.3345 62.0271 27.8948V29.0832C62.0271 29.6435 62.4151 30.0085 63.0141 30.0085C63.613 30.0085 63.9842 29.652 63.9842 29.1002V29.0408H63.4443V29.0917C63.4443 29.3549 63.2671 29.5162 63.0141 29.5162C62.7357 29.5162 62.567 29.3464 62.567 29.0917V28.7012H63.9842V28.6927ZM60.8545 28.7776C60.8545 29.1596 60.6099 29.4058 60.2134 29.4058H59.6567V26.579H60.2134C60.6099 26.579 60.8545 26.8252 60.8545 27.2072V28.7691V28.7776ZM60.2388 26.0527H59.0915V29.9321H60.2388C60.9473 29.9321 61.4282 29.4822 61.4282 28.7946V27.1987C61.4282 26.5111 60.9473 26.0612 60.2388 26.0612V26.0527ZM57.0501 26.3413H57.2863V25.8829H56.9067C56.5018 25.8829 56.2318 26.1376 56.2318 26.5196V27.0374H55.8354V27.5213H56.2318V29.9321H56.7717V27.5213H57.2863V27.0374H56.7717V26.6045C56.7717 26.4432 56.8814 26.3413 57.0501 26.3413ZM54.4266 29.5077C54.1567 29.5077 53.9795 29.3379 53.9795 29.0747V27.9033C53.9795 27.6486 54.1567 27.4703 54.4266 27.4703C54.6965 27.4703 54.8653 27.6486 54.8653 27.9033V29.0747C54.8653 29.3379 54.6965 29.5077 54.4266 29.5077ZM54.4266 30.0085C55.0171 30.0085 55.4051 29.635 55.4051 29.0832V27.9033C55.4051 27.3515 55.0171 26.978 54.4266 26.978C53.8361 26.978 53.4396 27.3515 53.4396 27.9033V29.0832C53.4396 29.635 53.8277 30.0085 54.4266 30.0085ZM50.8415 30.0085C51.4151 30.0085 51.7778 29.6775 51.7778 29.1342C51.7778 28.0306 50.4619 28.4381 50.4619 27.7929C50.4619 27.5807 50.5968 27.4449 50.8246 27.4449C51.0524 27.4449 51.1958 27.5807 51.1958 27.7844V27.8863H51.7272V27.7759C51.7272 27.2921 51.3645 26.978 50.8162 26.978C50.2678 26.978 49.922 27.2751 49.922 27.8014C49.922 28.8795 51.2379 28.5145 51.2379 29.1596C51.2379 29.3888 51.0692 29.5416 50.833 29.5416C50.5884 29.5416 50.4197 29.3803 50.4197 29.1427V29.0408H49.8882V29.1511C49.8882 29.669 50.2678 30.0085 50.833 30.0085H50.8415ZM48.3951 27.4618C48.6566 27.4618 48.8338 27.6231 48.8338 27.8863V28.2513H47.9565V27.8863C47.9565 27.6231 48.1336 27.4618 48.3951 27.4618ZM49.3737 28.7012V27.9118C49.3737 27.3515 48.9772 26.978 48.4036 26.978C47.83 26.978 47.4166 27.343 47.4166 27.9033V29.0917C47.4166 29.652 47.8046 30.017 48.4036 30.017C49.0025 30.017 49.3737 29.6605 49.3737 29.1087V29.0493H48.8338V29.1002C48.8338 29.3634 48.6566 29.5247 48.4036 29.5247C48.1252 29.5247 47.9565 29.3549 47.9565 29.1002V28.7097H49.3737V28.7012ZM46.9442 27.5297V27.0459H46.4128V26.2904H45.9066V26.8761C45.9066 26.978 45.8476 27.0459 45.7379 27.0459H45.4764V27.5297H45.8729V29.3039C45.8729 29.6859 46.1344 29.9406 46.5393 29.9406H46.9189V29.4398H46.6827C46.514 29.4398 46.4128 29.3379 46.4128 29.1681V27.5297H46.9442ZM44.3798 27.0459V29.1087C44.3798 29.3209 44.2111 29.4992 43.958 29.4992C43.7218 29.4992 43.5615 29.3379 43.5615 29.1002V27.0459H43.0217V29.2955C43.0217 29.7199 43.3085 30.0085 43.7134 30.0085C44.0171 30.0085 44.2448 29.8472 44.3376 29.618H44.3713V29.9406H44.9112V27.0459H44.3713H44.3798ZM41.6466 26.978C41.3345 26.978 41.0899 27.1393 40.9887 27.3854H40.9549V27.0544H40.415V29.9491H40.9549V27.9033C40.9549 27.6825 41.1321 27.4873 41.3936 27.4873C41.6382 27.4873 41.8069 27.6571 41.8069 27.9033V29.9406H42.3468V27.708C42.3468 27.2666 42.0516 26.978 41.6382 26.978H41.6466ZM39.1413 29.9406H39.6811V27.0459H39.1413V29.9406ZM39.4196 26.5281C39.6137 26.5281 39.7486 26.3922 39.7486 26.197C39.7486 26.0017 39.6137 25.8659 39.4196 25.8659C39.2256 25.8659 39.0822 26.0017 39.0822 26.197C39.0822 26.3922 39.2172 26.5281 39.4196 26.5281ZM35.3199 29.9406H35.8936V27.2157L35.8598 26.961H35.902L36.6106 29.0408H37.0324L37.7494 26.961H37.7916L37.7663 27.2157V29.9406H38.3399V26.0612H37.5638L36.8636 28.2598H36.8215L36.1129 26.0612H35.3199V29.9406ZM32.1397 29.5671C31.7179 29.5671 31.448 29.2445 31.448 28.8286C31.448 28.5399 31.5829 28.2768 31.7938 28.0985L32.6964 29.3294C32.553 29.4822 32.359 29.5671 32.1313 29.5671H32.1397ZM32.0469 26.4092C32.2578 26.4092 32.3928 26.579 32.3928 26.8082C32.3928 27.0544 32.2241 27.309 31.9372 27.5128C31.7938 27.309 31.6842 27.0798 31.6842 26.8252C31.6842 26.5875 31.8191 26.4092 32.0553 26.4092H32.0469ZM33.2279 29.2615C33.346 29.0832 33.3966 28.854 33.3966 28.5909V28.1325H32.9495V28.5994C32.9495 28.6927 32.9495 28.7776 32.9242 28.854L32.1903 27.8608C32.6205 27.5977 32.8652 27.2241 32.8652 26.8252C32.8652 26.3413 32.5362 25.9848 32.0469 25.9848C31.5323 25.9848 31.2202 26.3752 31.2202 26.8167C31.2202 27.1308 31.3636 27.4449 31.5323 27.708V27.7505C31.1359 27.9797 30.9165 28.3786 30.9165 28.854C30.9165 29.5162 31.3889 30.0085 32.0638 30.0085C32.4265 30.0085 32.7133 29.8557 32.9073 29.6011L33.1604 29.9406H33.5991V29.7539L33.2363 29.2615H33.2279ZM28.3437 30.0085C28.9173 30.0085 29.28 29.6775 29.28 29.1342C29.28 28.0306 27.9725 28.4381 27.9725 27.7929C27.9725 27.5807 28.1075 27.4449 28.3352 27.4449C28.563 27.4449 28.7148 27.5807 28.7148 27.7844V27.8863H29.2378V27.7759C29.2378 27.2921 28.8751 26.978 28.3268 26.978C27.7785 26.978 27.4326 27.2751 27.4326 27.8014C27.4326 28.8795 28.7486 28.5145 28.7486 29.1596C28.7486 29.3888 28.5714 29.5416 28.3437 29.5416C28.099 29.5416 27.9303 29.3803 27.9303 29.1427V29.0408H27.4073V29.1511C27.4073 29.669 27.7869 30.0085 28.3521 30.0085H28.3437ZM25.9058 27.4618C26.1673 27.4618 26.3444 27.6231 26.3444 27.8863V28.2513H25.4587V27.8863C25.4587 27.6231 25.6358 27.4618 25.9058 27.4618ZM26.8843 28.7012V27.9118C26.8843 27.3515 26.4963 26.978 25.9142 26.978C25.3322 26.978 24.9188 27.343 24.9188 27.9033V29.0917C24.9188 29.652 25.3153 30.017 25.9142 30.017C26.5131 30.017 26.8843 29.6605 26.8843 29.1087V29.0493H26.3444V29.1002C26.3444 29.3634 26.1673 29.5247 25.9142 29.5247C25.6358 29.5247 25.4587 29.3549 25.4587 29.1002V28.7097H26.8843V28.7012ZM23.4341 30.0085C24.0162 30.0085 24.4042 29.6435 24.4042 29.0917V28.9135H23.8644V29.0832C23.8644 29.3379 23.6956 29.5077 23.4341 29.5077C23.1726 29.5077 23.0124 29.3379 23.0124 29.0832V27.8948C23.0124 27.6401 23.1811 27.4703 23.4341 27.4703C23.6872 27.4703 23.8644 27.6401 23.8644 27.8948V28.0646H24.4042V27.8863C24.4042 27.3345 24.0162 26.9695 23.4341 26.9695C22.8521 26.9695 22.4725 27.3345 22.4725 27.8863V29.0917C22.4725 29.6435 22.8605 30.0085 23.4341 30.0085ZM21.2831 29.9406H21.8229V27.0459H21.2831V29.9406ZM21.5614 26.5281C21.7555 26.5281 21.8904 26.3922 21.8904 26.197C21.8904 26.0017 21.7555 25.8659 21.5614 25.8659C21.3674 25.8659 21.2324 26.0017 21.2324 26.197C21.2324 26.3922 21.3674 26.5281 21.5614 26.5281ZM20.6588 26.978C20.3467 26.978 20.1274 27.1562 20.0346 27.4618H20.0093V27.0544H19.4694V29.9491H20.0093V28.2004C20.0093 27.8778 20.237 27.5977 20.6335 27.5977H20.7347V26.9865H20.6588V26.978ZM17.6136 28.0815H17.1749V26.596H17.6136C18.0606 26.596 18.3137 26.8676 18.3137 27.343C18.3137 27.8184 18.0606 28.09 17.6136 28.09V28.0815ZM17.6557 26.0612H16.6013V29.9406H17.1665V28.6078H17.6473C18.4318 28.6078 18.8789 28.141 18.8789 27.3345C18.8789 26.5281 18.4318 26.0612 17.6473 26.0612H17.6557ZM14.7623 27.5297V27.0459H14.2224V26.2904H13.7163V26.8761C13.7163 26.978 13.6488 27.0459 13.5476 27.0459H13.2861V27.5297H13.6826V29.3039C13.6826 29.6859 13.9525 29.9406 14.349 29.9406H14.7286V29.4398H14.4924C14.3237 29.4398 14.2224 29.3379 14.2224 29.1681V27.5297H14.7623ZM11.9533 30.0085C12.5269 30.0085 12.8896 29.6775 12.8896 29.1342C12.8896 28.0306 11.5737 28.4381 11.5737 27.7929C11.5737 27.5807 11.7086 27.4449 11.9364 27.4449C12.1642 27.4449 12.3076 27.5807 12.3076 27.7844V27.8863H12.839V27.7759C12.839 27.2921 12.4763 26.978 11.928 26.978C11.3796 26.978 11.0338 27.2751 11.0338 27.8014C11.0338 28.8795 12.3497 28.5145 12.3497 29.1596C12.3497 29.3888 12.181 29.5416 11.9448 29.5416C11.7086 29.5416 11.5399 29.3803 11.5399 29.1427V29.0408H11.0085V29.1511C11.0085 29.669 11.3881 30.0085 11.9533 30.0085ZM9.50693 27.4618C9.76844 27.4618 9.94558 27.6231 9.94558 27.8863V28.2513H9.06828V27.8863C9.06828 27.6231 9.24543 27.4618 9.50693 27.4618ZM10.4855 28.7012V27.9118C10.4855 27.3515 10.089 26.978 9.51537 26.978C8.94174 26.978 8.5284 27.343 8.5284 27.9033V29.0917C8.5284 29.652 8.91644 30.017 9.51537 30.017C10.1143 30.017 10.4855 29.6605 10.4855 29.1087V29.0493H9.94558V29.1002C9.94558 29.3634 9.76843 29.5247 9.51537 29.5247C9.23699 29.5247 9.06828 29.3549 9.06828 29.1002V28.7097H10.4855V28.7012ZM5.36504 29.9406H5.99771L6.41949 27.8608H6.45324L6.87502 29.9406H7.50769L8.15723 27.0459H7.58361L7.1787 29.2785H7.13652L6.70631 27.0459H6.1833L5.75308 29.2785H5.7109L5.30599 27.0459H4.70706L5.36504 29.9406ZM3.3658 29.5162C3.09586 29.5162 2.91871 29.3464 2.91871 29.0832V27.9118C2.91871 27.6571 3.09586 27.4788 3.3658 27.4788C3.63574 27.4788 3.80445 27.6571 3.80445 27.9118V29.0832C3.80445 29.3464 3.6273 29.5162 3.3658 29.5162ZM3.3658 30.017C3.94786 30.017 4.34433 29.6435 4.34433 29.0917V27.9118C4.34433 27.36 3.95629 26.9865 3.3658 26.9865C2.77531 26.9865 2.37883 27.36 2.37883 27.9118V29.0917C2.37883 29.6435 2.76687 30.017 3.3658 30.017ZM0.582045 29.4228V26.0696H0.00842285V29.9491H1.87269V29.4228H0.573609H0.582045Z" fill="white"/>
<path fill-rule="evenodd" clip-rule="evenodd" d="M30.3513 13.7775C30.0308 14.1595 29.8705 14.567 29.8705 15.0169C29.8705 15.4668 30.0308 15.8743 30.3598 16.2478C30.6887 16.6213 31.1021 16.8081 31.6082 16.8081C32.1144 16.8081 32.5446 16.6298 32.8989 16.2648C33.2532 15.8997 33.4303 15.4838 33.4303 15.0254C33.4303 14.567 33.2701 14.151 32.9326 13.7775C32.6036 13.404 32.165 13.2172 31.6251 13.2172C31.0852 13.2172 30.6634 13.404 30.3429 13.786L30.3513 13.7775ZM26.2179 23.6756V11.4006C26.2179 11.078 26.2263 10.8403 26.2432 10.6875C26.26 10.5347 26.3191 10.3565 26.4203 10.1612C26.6143 9.7792 27.0867 9.59244 27.8206 9.59244C28.5545 9.59244 29.0522 9.68582 29.3137 9.87258C29.5668 10.0593 29.7187 10.3395 29.7608 10.7045C30.2923 9.97445 31.119 9.60942 32.2578 9.60942C33.3966 9.60942 34.4679 10.1527 35.4886 11.2308C36.5009 12.3089 37.0155 13.5653 37.0155 14.9914C37.0155 16.4176 36.5093 17.6739 35.5055 18.752C34.4932 19.8301 33.4219 20.3734 32.2831 20.3734C31.1443 20.3734 30.3091 20.0508 29.7946 19.4057V23.6502C29.7946 23.9727 29.7861 24.2104 29.7608 24.3632C29.7355 24.516 29.6765 24.6943 29.5752 24.898C29.474 25.1018 29.2884 25.2461 29.0438 25.331C28.7907 25.4159 28.4533 25.4583 28.0231 25.4583C27.5929 25.4583 27.247 25.4159 26.9855 25.331C26.724 25.2461 26.5469 25.1018 26.4456 24.9065C26.3444 24.7113 26.2769 24.533 26.26 24.3802C26.2432 24.2274 26.2347 23.9897 26.2347 23.6671L26.2179 23.6756ZM17.1074 15.1442C17.1074 15.6026 17.293 16.0186 17.6473 16.3921C18.01 16.7656 18.4487 16.9524 18.9632 16.9524C19.4778 16.9524 19.908 16.7656 20.2454 16.3836C20.5913 16.0016 20.76 15.5857 20.76 15.1357C20.76 14.6858 20.5997 14.2529 20.2708 13.8624C19.9418 13.4719 19.5031 13.2767 18.9548 13.2767C18.4065 13.2767 17.9594 13.4719 17.622 13.8624C17.2761 14.2529 17.1074 14.6773 17.1074 15.1442ZM20.9119 10.7724C20.9962 9.98294 21.5445 9.59244 22.5568 9.59244C23.0967 9.59244 23.5016 9.63489 23.7715 9.71978C24.033 9.80467 24.2186 9.94898 24.3283 10.1612C24.4295 10.3734 24.497 10.5517 24.5139 10.7215C24.5307 10.8828 24.5476 11.1205 24.5476 11.443V18.803C24.5476 19.1255 24.5392 19.3632 24.5139 19.5245C24.497 19.6858 24.438 19.8726 24.3367 20.0848C24.1427 20.4498 23.6619 20.6281 22.9111 20.6281C22.1603 20.6281 21.6458 20.5347 21.3843 20.3395C21.1312 20.1527 20.9793 19.8726 20.9372 19.5076C20.4226 20.2546 19.5622 20.6196 18.3559 20.6196C17.1496 20.6196 16.0361 20.0678 15.0069 18.9558C13.9778 17.8522 13.4632 16.5619 13.4632 15.1018C13.4632 13.6417 13.9778 12.3514 15.0154 11.2563C16.0529 10.1612 17.1918 9.60942 18.4318 9.60942C18.9042 9.60942 19.3344 9.69431 19.7224 9.86409C20.1105 10.0339 20.3889 10.1867 20.5407 10.3395C20.6925 10.4838 20.8191 10.6281 20.9203 10.7724H20.9119ZM10.5951 17.0797C11.135 17.0797 11.5315 17.1476 11.7761 17.275C12.0207 17.4108 12.1894 17.5975 12.2738 17.8522C12.3666 18.1069 12.4088 18.4295 12.4088 18.8199C12.4088 19.2104 12.375 19.5245 12.3075 19.7622C12.2316 19.9999 12.1557 20.1867 12.0545 20.3055C11.9617 20.4328 11.8098 20.5177 11.6158 20.5772C11.3965 20.6621 11.0422 20.7045 10.5529 20.7045H1.86423C1.54368 20.7045 1.24 20.6196 0.944751 20.4498C0.328951 20.1018 0.0252686 19.55 0.0252686 18.7945C0.0252686 18.4295 0.109625 18.1323 0.278337 17.9116L6.75689 8.89635H1.94859C1.6196 8.89635 1.36653 8.88786 1.20626 8.86239C1.04598 8.84541 0.851959 8.78599 0.632633 8.68412C0.227723 8.48888 0.0252686 7.96256 0.0252686 7.11367C0.0252686 6.21384 0.210852 5.67054 0.590455 5.4753C0.801346 5.36494 0.986929 5.29703 1.14721 5.28005C1.30748 5.26307 1.55212 5.24609 1.88954 5.24609H10.283C10.6035 5.24609 10.9072 5.33098 11.2025 5.50076C11.4893 5.66205 11.717 5.89126 11.8858 6.17139C12.046 6.45153 12.1304 6.77411 12.1304 7.15611C12.1304 7.53811 12.046 7.83523 11.8773 8.06443L5.40719 17.0797H10.6035H10.5951Z" fill="white"/>
<path fill-rule="evenodd" clip-rule="evenodd" d="M77.5487 13.3192L76.1905 13.2343V16.1375C76.1905 16.5195 76.2496 16.7912 76.3677 16.9609C76.4858 17.1307 76.7051 17.2156 77.0341 17.2156C77.3631 17.2156 77.6077 17.2241 77.7849 17.2496C77.962 17.275 78.1476 17.3429 78.3416 17.4533C78.6622 17.6316 78.8225 18.1069 78.8225 18.8625C78.8225 19.7453 78.6284 20.2886 78.2404 20.4839C78.0295 20.5857 77.8524 20.6451 77.6837 20.6621C77.5234 20.6791 77.2956 20.6961 76.9835 20.6961C75.5326 20.6961 74.4359 20.365 73.6852 19.7114C72.9344 19.0492 72.5548 17.9372 72.5548 16.3667V13.2597C72.2933 13.3022 72.0065 13.3192 71.7028 13.3192C71.3991 13.3192 71.146 13.2003 70.9436 12.9626C70.7411 12.7249 70.6399 12.3175 70.6399 11.7487C70.6399 11.1799 70.6737 10.7555 70.7411 10.5008C70.8086 10.2377 70.9014 10.0594 71.028 9.94056C71.2473 9.7538 71.5341 9.66891 71.8631 9.66891L72.5548 9.7538V7.58911C72.5548 7.26653 72.5632 7.02884 72.5885 6.87604C72.6054 6.72324 72.6729 6.55346 72.791 6.37519C72.9681 6.02715 73.508 5.84888 74.4022 5.84888C75.347 5.84888 75.9122 6.10355 76.0893 6.62137C76.1568 6.84209 76.1905 7.20711 76.1905 7.69098V9.7538C76.8063 9.69438 77.2619 9.66891 77.574 9.66891C77.8861 9.66891 78.1223 9.6774 78.2826 9.70287C78.4429 9.71985 78.6284 9.78776 78.8393 9.89811C79.2021 10.0849 79.3876 10.6197 79.3876 11.5195C79.3876 12.4193 79.2021 12.9457 78.8225 13.1409C78.6116 13.2428 78.426 13.3022 78.2657 13.3192C78.1054 13.3361 77.8608 13.3531 77.5402 13.3531L77.5487 13.3192ZM69.0878 9.72833C69.3493 9.81322 69.5686 9.95754 69.7457 10.1613C69.9229 10.365 70.0072 10.6876 70.0072 11.1375C70.0072 11.5874 69.8723 12.0798 69.6108 12.6146C69.3408 13.1494 68.9612 13.4125 68.4635 13.4125C68.2105 13.4125 67.9743 13.3531 67.7381 13.2428C67.5103 13.1324 67.2066 13.073 66.8354 13.073C66.4643 13.073 66.11 13.2088 65.781 13.472C65.452 13.7351 65.2917 14.0577 65.2917 14.4397V18.854C65.2917 19.1766 65.2749 19.4142 65.258 19.584C65.2411 19.7453 65.1736 19.9321 65.064 20.1443C64.8531 20.5093 64.3132 20.6876 63.4359 20.6876C62.7695 20.6876 62.2886 20.5687 61.9934 20.3311C61.7741 20.1358 61.6475 19.8302 61.6138 19.4227V11.4346C61.6138 11.112 61.6222 10.8743 61.6475 10.7046C61.6644 10.5433 61.7235 10.365 61.8247 10.1698C62.0187 9.78776 62.567 9.601 63.4528 9.601C64.2879 9.601 64.8109 9.76229 65.0218 10.0849C65.1736 10.3141 65.2495 10.5433 65.2495 10.781C65.317 10.6791 65.4183 10.5603 65.5532 10.4244C65.6882 10.2886 65.9666 10.0934 66.3968 9.85567C66.827 9.61798 67.2066 9.49913 67.5356 9.49913C67.8646 9.49913 68.1345 9.51611 68.3623 9.55007C68.5816 9.58402 68.8263 9.64344 69.0962 9.72833H69.0878ZM52.5033 15.1528C52.5033 15.6112 52.6805 16.0271 53.0432 16.4007C53.4059 16.7742 53.8446 16.9609 54.3592 16.9609C54.8737 16.9609 55.304 16.7742 55.6414 16.3922C55.9788 16.0102 56.156 15.5942 56.156 15.1443C56.156 14.6944 55.9872 14.2614 55.6667 13.8709C55.3377 13.4805 54.899 13.2852 54.3507 13.2852C53.8024 13.2852 53.3553 13.4805 53.0095 13.8709C52.672 14.2614 52.4949 14.6859 52.4949 15.1528H52.5033ZM56.2994 10.781C56.3837 9.99149 56.932 9.601 57.9527 9.601C58.4926 9.601 58.8975 9.64344 59.1675 9.72833C59.429 9.81322 59.6146 9.95754 59.7242 10.1698C59.8254 10.382 59.8929 10.5603 59.9098 10.73C59.9267 10.8913 59.9435 11.129 59.9435 11.4516V18.8115C59.9435 19.1341 59.9351 19.3718 59.9098 19.5331C59.8845 19.6944 59.8254 19.8811 59.7327 20.0934C59.5386 20.4584 59.0578 20.6367 58.307 20.6367C57.5563 20.6367 57.0417 20.5433 56.7802 20.348C56.5271 20.1613 56.3753 19.8811 56.3331 19.5161C55.8185 20.2631 54.9581 20.6282 53.7518 20.6282C52.5455 20.6282 51.432 20.0764 50.4029 18.9643C49.3737 17.8608 48.8591 16.5704 48.8591 15.1103C48.8591 13.6502 49.3737 12.3599 50.4113 11.2648C51.4489 10.1698 52.5877 9.61798 53.8277 9.61798C54.3001 9.61798 54.7303 9.70287 55.1268 9.87265C55.5148 10.0424 55.7932 10.1952 55.9366 10.348C56.0885 10.4923 56.215 10.6367 56.3162 10.781H56.2994ZM41.807 15.1443C41.807 15.7385 42.001 16.2054 42.389 16.528C42.7855 16.8591 43.1904 17.0204 43.6291 17.0204C44.0677 17.0204 44.4811 16.893 44.8607 16.6299C45.2487 16.3667 45.5524 16.2394 45.7886 16.2394C46.2104 16.2394 46.7165 16.6129 47.3154 17.3514C47.636 17.7589 47.7963 18.1239 47.7963 18.4465C47.7963 18.9728 47.4167 19.4737 46.649 19.9406C45.8561 20.5008 44.886 20.781 43.7219 20.781C42.4312 20.781 41.1827 20.3141 39.9849 19.3718C39.4113 18.9219 38.9473 18.3277 38.5846 17.5721C38.2218 16.8251 38.0447 15.9932 38.0447 15.0934C38.0447 14.1935 38.2303 13.3701 38.5846 12.6316C38.9473 11.9015 39.4113 11.3073 39.9849 10.8574C41.1406 9.93207 42.3722 9.47366 43.6797 9.47366C44.2111 9.47366 44.7257 9.55007 45.2234 9.69438C45.7211 9.84718 46.0923 9.983 46.3285 10.1273L46.6659 10.3395C46.919 10.5093 47.113 10.6451 47.2479 10.7385C47.6107 11.0187 47.7878 11.3412 47.7878 11.6893C47.7878 12.0373 47.6444 12.4533 47.3492 12.9032C46.8515 13.6757 46.3706 14.0577 45.9067 14.0577C45.6452 14.0577 45.2656 13.9049 44.7763 13.5993C44.5232 13.3616 44.1689 13.2428 43.705 13.2428C43.241 13.2428 42.8024 13.4125 42.3975 13.7436C41.9925 14.0832 41.7901 14.5416 41.7901 15.1443H41.807Z" fill="white"/>
<path fill-rule="evenodd" clip-rule="evenodd" d="M66.4895 6.62139C65.7472 6.62139 65.2663 6.13752 65.2663 5.42445V2.19015C65.2663 1.47708 65.7472 0.993209 66.4895 0.993209C67.2318 0.993209 67.7042 1.47708 67.7042 2.19015V5.42445C67.7042 6.13752 67.215 6.62139 66.4895 6.62139ZM66.4895 7.62309C67.8729 7.62309 68.784 6.7657 68.784 5.44992V2.18166C68.784 0.857385 67.8814 0.00848896 66.4895 0.00848896C65.0976 0.00848896 64.1781 0.865874 64.1781 2.18166V5.44992C64.1781 6.77419 65.1061 7.62309 66.4895 7.62309ZM61.8668 0.135823V3.27674H59.7494V0.135823H58.6697V7.48727H59.7494V4.27844H61.8668V7.48727H62.9465V0.135823H61.8668ZM55.3967 7.62309C56.6957 7.62309 57.5477 6.85059 57.5477 5.49236C57.5477 2.83531 54.3506 3.62479 54.3506 1.95246C54.3506 1.34975 54.7387 1.0017 55.346 1.0017C55.9534 1.0017 56.3752 1.36672 56.3752 1.92699V2.19864H57.4296V1.90153C57.4296 0.772496 56.6198 0 55.346 0C54.0723 0 53.2709 0.73854 53.2709 2.02886C53.2709 4.60102 56.468 3.87946 56.468 5.57725C56.468 6.2309 56.0462 6.62139 55.3882 6.62139C54.7302 6.62139 54.2832 6.20543 54.2832 5.59423V5.27165H53.2034V5.59423C53.2034 6.81664 54.0807 7.62309 55.3967 7.62309ZM52.267 1.13752V0.135823H48.5722V7.48727H52.267V6.48557H49.652V4.26995H51.9296V3.28523H49.652V1.12903H52.267V1.13752ZM44.1014 1.13752H45.0968C45.9066 1.13752 46.3452 1.62139 46.3452 2.44482C46.3452 3.26825 45.8981 3.74363 45.0968 3.74363H44.1014V1.12903V1.13752ZM46.2693 7.49576H47.5347L46.2187 4.5416C47.0032 4.21902 47.4419 3.48896 47.4419 2.41935C47.4419 0.967742 46.6236 0.135823 45.2064 0.135823H43.0216V7.48727H44.1014V4.71138H45.1727L46.2778 7.48727L46.2693 7.49576ZM41.8744 1.13752V0.135823H38.2639V7.48727H39.3437V4.50764H41.4695V3.49745H39.3437V1.12903H41.8744V1.13752Z" fill="white"/>
</g>
<defs>
<clipPath id="clip0_4_2970">
<rect width="79.6154" height="30" fill="white"/>
</clipPath>
</defs>
</svg>
