<svg width="161" height="61" viewBox="0 0 161 61" fill="none" xmlns="http://www.w3.org/2000/svg">
<g clip-path="url(#clip0_4_5392)">
<path fill-rule="evenodd" clip-rule="evenodd" d="M159.107 61C160.266 61 161 60.3268 161 59.2221C161 56.9782 158.339 57.8067 158.339 56.4949C158.339 56.0634 158.612 55.7872 159.072 55.7872C159.533 55.7872 159.823 56.0634 159.823 56.4777V56.6848H160.881V56.4604C160.881 55.4765 160.147 54.8379 159.055 54.8379C157.964 54.8379 157.247 55.442 157.247 56.5122C157.247 58.7043 159.908 57.9621 159.908 59.2739C159.908 59.74 159.567 60.0507 159.089 60.0507C158.595 60.0507 158.271 59.7227 158.271 59.2394V59.0323H157.196V59.2567C157.196 60.3096 157.964 61 159.107 61ZM154.177 55.8217C154.705 55.8217 155.064 56.1497 155.064 56.6848V57.427H153.29V56.6848C153.29 56.1497 153.648 55.8217 154.177 55.8217ZM156.155 58.3418V56.7366C156.155 55.5973 155.354 54.8379 154.194 54.8379C153.034 54.8379 152.198 55.5801 152.198 56.7193V59.1358C152.198 60.275 152.982 61.0173 154.194 61.0173C155.405 61.0173 156.155 60.2923 156.155 59.1704V59.0495H155.064V59.1531C155.064 59.6882 154.705 60.0161 154.194 60.0161C153.631 60.0161 153.29 59.6709 153.29 59.1531V58.3591H156.155V58.3418ZM149.792 60.8619H150.884V54.976H149.792V60.8619ZM150.338 53.923C150.731 53.923 151.004 53.6469 151.004 53.2499C151.004 52.8529 150.731 52.5767 150.338 52.5767C149.946 52.5767 149.673 52.8529 149.673 53.2499C149.673 53.6469 149.946 53.923 150.338 53.923ZM148.513 54.8379C147.882 54.8379 147.455 55.2003 147.268 55.8217H147.2V54.9932H146.108V60.8792H147.2V57.3234C147.2 56.6675 147.66 56.0979 148.462 56.0979H148.667V54.8551H148.496L148.513 54.8379ZM142.85 55.8217C143.378 55.8217 143.737 56.1497 143.737 56.6848V57.427H141.945V56.6848C141.945 56.1497 142.304 55.8217 142.85 55.8217ZM144.828 58.3418V56.7366C144.828 55.5973 144.044 54.8379 142.867 54.8379C141.69 54.8379 140.854 55.5801 140.854 56.7193V59.1358C140.854 60.275 141.655 61.0173 142.867 61.0173C144.078 61.0173 144.828 60.2923 144.828 59.1704V59.0495H143.737V59.1531C143.737 59.6882 143.378 60.0161 142.867 60.0161C142.304 60.0161 141.945 59.6709 141.945 59.1531V58.3591H144.828V58.3418ZM137.254 60.8619H138.67L140.154 54.976H138.994L138.022 59.6364H137.954L136.981 54.976H135.77L137.271 60.8619H137.254ZM133.604 60.8619H134.696V54.976H133.604V60.8619ZM134.167 53.923C134.576 53.923 134.832 53.6469 134.832 53.2499C134.832 52.8529 134.559 52.5767 134.167 52.5767C133.774 52.5767 133.501 52.8529 133.501 53.2499C133.501 53.6469 133.774 53.923 134.167 53.923ZM131.949 60.8619H132.495V59.8435H132.222C131.898 59.8435 131.71 59.6364 131.71 59.343V52.6285H130.618V59.6364C130.618 60.3786 131.164 60.8619 131.949 60.8619ZM127.411 55.8217C127.94 55.8217 128.299 56.1497 128.299 56.6848V57.427H126.524V56.6848C126.524 56.1497 126.883 55.8217 127.411 55.8217ZM129.39 58.3418V56.7366C129.39 55.5973 128.606 54.8379 127.429 54.8379C126.251 54.8379 125.433 55.5801 125.433 56.7193V59.1358C125.433 60.275 126.217 61.0173 127.429 61.0173C128.64 61.0173 129.39 60.2923 129.39 59.1704V59.0495H128.299V59.1531C128.299 59.6882 127.94 60.0161 127.429 60.0161C126.866 60.0161 126.524 59.6709 126.524 59.1531V58.3591H129.39V58.3418ZM123.061 58.5144C123.061 59.2912 122.567 59.7917 121.765 59.7917H120.639V54.0439H121.765C122.567 54.0439 123.061 54.5444 123.061 55.3212V58.4972V58.5144ZM121.816 52.9737H119.496V60.8619H121.816C123.249 60.8619 124.221 59.9471 124.221 58.549V55.3039C124.221 53.9058 123.249 52.991 121.816 52.991V52.9737ZM115.368 53.5606H115.846V52.6285H115.078C114.259 52.6285 113.713 53.1463 113.713 53.923V54.976H112.912V55.9598H113.713V60.8619H114.805V55.9598H115.846V54.976H114.805V54.0957C114.805 53.7677 115.027 53.5606 115.368 53.5606ZM110.063 59.9989C109.517 59.9989 109.159 59.6537 109.159 59.1186V56.7366C109.159 56.2187 109.517 55.8563 110.063 55.8563C110.609 55.8563 110.95 56.2187 110.95 56.7366V59.1186C110.95 59.6537 110.609 59.9989 110.063 59.9989ZM110.063 61.0173C111.257 61.0173 112.042 60.2578 112.042 59.1358V56.7366C112.042 55.6146 111.257 54.8551 110.063 54.8551C108.869 54.8551 108.067 55.6146 108.067 56.7366V59.1358C108.067 60.2578 108.852 61.0173 110.063 61.0173ZM102.813 61.0173C103.973 61.0173 104.706 60.3441 104.706 59.2394C104.706 56.9955 102.045 57.824 102.045 56.5122C102.045 56.0807 102.318 55.8045 102.779 55.8045C103.239 55.8045 103.529 56.0807 103.529 56.4949V56.702H104.604V56.4777C104.604 55.4938 103.87 54.8551 102.762 54.8551C101.653 54.8551 100.953 55.4593 100.953 56.5294C100.953 58.7216 103.615 57.9793 103.615 59.2912C103.615 59.7572 103.273 60.0679 102.796 60.0679C102.301 60.0679 101.96 59.74 101.96 59.2567V59.0495H100.885V59.2739C100.885 60.3268 101.653 61.0173 102.796 61.0173H102.813ZM97.8658 55.839C98.3946 55.839 98.7528 56.167 98.7528 56.702V57.4443H96.9787V56.702C96.9787 56.167 97.337 55.839 97.8658 55.839ZM99.8446 58.3591V56.7538C99.8446 55.6146 99.0428 54.8551 97.8829 54.8551C96.7229 54.8551 95.887 55.5973 95.887 56.7366V59.1531C95.887 60.2923 96.6717 61.0345 97.8829 61.0345C99.094 61.0345 99.8446 60.3096 99.8446 59.1876V59.0668H98.7528V59.1704C98.7528 59.7054 98.3946 60.0334 97.8829 60.0334C97.3199 60.0334 96.9787 59.6882 96.9787 59.1704V58.3764H99.8446V58.3591ZM94.9317 55.9771V54.9932H93.857V53.457H92.8335V54.648C92.8335 54.8551 92.7141 54.9932 92.4923 54.9932H91.9635V55.9771H92.7652V59.5846C92.7652 60.3614 93.2941 60.8792 94.1129 60.8792H94.8805V59.8608H94.4029C94.0617 59.8608 93.857 59.6537 93.857 59.3084V55.9771H94.9317ZM89.7458 54.9932V59.1876C89.7458 59.6191 89.4047 59.9816 88.8929 59.9816C88.4153 59.9816 88.0912 59.6537 88.0912 59.1704V54.9932H86.9994V59.5674C86.9994 60.4304 87.5794 61.0173 88.3982 61.0173C89.0123 61.0173 89.4729 60.6893 89.6606 60.2233H89.7288V60.8792H90.8205V54.9932H89.7288H89.7458ZM84.2188 54.8551C83.5877 54.8551 83.093 55.1831 82.8883 55.6837H82.82V55.0105H81.7283V60.8964H82.82V56.7366C82.82 56.2878 83.1783 55.8908 83.7071 55.8908C84.2018 55.8908 84.5429 56.236 84.5429 56.7366V60.8792H85.6347V56.3396C85.6347 55.442 85.0377 54.8551 84.2018 54.8551H84.2188ZM79.1524 60.8792H80.2442V54.9932H79.1524V60.8792ZM79.7153 53.9403C80.1077 53.9403 80.3806 53.6641 80.3806 53.2671C80.3806 52.8701 80.1077 52.594 79.7153 52.594C79.323 52.594 79.033 52.8701 79.033 53.2671C79.033 53.6641 79.3059 53.9403 79.7153 53.9403ZM71.4248 60.8792H72.5848V55.3384L72.5166 54.8206H72.6019L74.0348 59.0495H74.8877L76.3377 54.8206H76.423L76.3718 55.3384V60.8792H77.5318V52.991H75.9624L74.5465 57.4615H74.4613L73.0283 52.991H71.4248V60.8792ZM64.9937 60.1197C64.1407 60.1197 63.5949 59.4638 63.5949 58.618C63.5949 58.0311 63.8678 57.496 64.2943 57.1336L66.1196 59.6364C65.8296 59.9471 65.4372 60.1197 64.9766 60.1197H64.9937ZM64.806 53.6987C65.2325 53.6987 65.5054 54.0439 65.5054 54.5099C65.5054 55.0105 65.1643 55.5283 64.5843 55.9426C64.2943 55.5283 64.0725 55.0623 64.0725 54.5444C64.0725 54.0611 64.3454 53.6987 64.8231 53.6987H64.806ZM67.1943 59.4983C67.4331 59.1358 67.5354 58.6698 67.5354 58.1347V57.2026H66.6313V58.152C66.6313 58.3418 66.6313 58.5144 66.5801 58.6698L65.096 56.6503C65.966 56.1152 66.4607 55.3557 66.4607 54.5444C66.4607 53.5606 65.7954 52.8356 64.806 52.8356C63.7655 52.8356 63.1343 53.6296 63.1343 54.5272C63.1343 55.1658 63.4243 55.8045 63.7655 56.3396V56.4259C62.9637 56.8919 62.5202 57.7032 62.5202 58.6698C62.5202 60.0161 63.4755 61.0173 64.8401 61.0173C65.5737 61.0173 66.1537 60.7066 66.546 60.1887L67.0578 60.8792H67.9448V60.4994L67.2113 59.4983H67.1943ZM57.3173 61.0173C58.4773 61.0173 59.2108 60.3441 59.2108 59.2394C59.2108 56.9955 56.5667 57.824 56.5667 56.5122C56.5667 56.0807 56.8396 55.8045 57.3002 55.8045C57.7608 55.8045 58.0678 56.0807 58.0678 56.4949V56.702H59.1255V56.4777C59.1255 55.4938 58.392 54.8551 57.2831 54.8551C56.1743 54.8551 55.4749 55.4593 55.4749 56.5294C55.4749 58.7216 58.1361 57.9793 58.1361 59.2912C58.1361 59.7572 57.7778 60.0679 57.3173 60.0679C56.8226 60.0679 56.4814 59.74 56.4814 59.2567V59.0495H55.4238V59.2739C55.4238 60.3268 56.1914 61.0173 57.3343 61.0173H57.3173ZM52.3873 55.839C52.9161 55.839 53.2743 56.167 53.2743 56.702V57.4443H51.4832V56.702C51.4832 56.167 51.8414 55.839 52.3873 55.839ZM54.3661 58.3591V56.7538C54.3661 55.6146 53.5814 54.8551 52.4044 54.8551C51.2273 54.8551 50.3914 55.5973 50.3914 56.7366V59.1531C50.3914 60.2923 51.1932 61.0345 52.4044 61.0345C53.6155 61.0345 54.3661 60.3096 54.3661 59.1876V59.0668H53.2743V59.1704C53.2743 59.7054 52.9161 60.0334 52.4044 60.0334C51.8414 60.0334 51.4832 59.6882 51.4832 59.1704V58.3764H54.3661V58.3591ZM47.3891 61.0173C48.5661 61.0173 49.3508 60.2751 49.3508 59.1531V58.7906H48.2591V59.1358C48.2591 59.6537 47.9179 59.9989 47.3891 59.9989C46.8603 59.9989 46.5362 59.6537 46.5362 59.1358V56.7193C46.5362 56.2015 46.8773 55.8563 47.3891 55.8563C47.9009 55.8563 48.2591 56.2015 48.2591 56.7193V57.0645H49.3508V56.702C49.3508 55.5801 48.5661 54.8379 47.3891 54.8379C46.212 54.8379 45.4444 55.5801 45.4444 56.702V59.1531C45.4444 60.2751 46.2291 61.0173 47.3891 61.0173ZM43.0391 60.8792H44.1309V54.9932H43.0391V60.8792ZM43.6021 53.9403C43.9944 53.9403 44.2674 53.6641 44.2674 53.2671C44.2674 52.8701 43.9944 52.594 43.6021 52.594C43.2097 52.594 42.9368 52.8701 42.9368 53.2671C42.9368 53.6641 43.2097 53.9403 43.6021 53.9403ZM41.7768 54.8551C41.1456 54.8551 40.7021 55.2176 40.5144 55.839H40.4633V55.0105H39.3715V60.8964H40.4633V57.3407C40.4633 56.6848 40.9238 56.1152 41.7256 56.1152H41.9303V54.8724H41.7768V54.8551ZM35.6186 57.099H34.7315V54.0784H35.6186C36.5227 54.0784 37.0345 54.6307 37.0345 55.5973C37.0345 56.564 36.5227 57.1163 35.6186 57.1163V57.099ZM35.7039 52.991H33.5716V60.8792H34.7145V58.1692H35.6868C37.2733 58.1692 38.1774 57.2199 38.1774 55.5801C38.1774 53.9403 37.2733 52.991 35.6868 52.991H35.7039ZM29.8528 55.9771V54.9932H28.761V53.457H27.7375V54.648C27.7375 54.8551 27.601 54.9932 27.3963 54.9932H26.8675V55.9771H27.6692V59.5846C27.6692 60.3614 28.2151 60.8792 29.0169 60.8792H29.7845V59.8608H29.3069C28.9657 59.8608 28.761 59.6537 28.761 59.3084V55.9771H29.8528ZM24.1722 61.0173C25.3322 61.0173 26.0657 60.3441 26.0657 59.2394C26.0657 56.9955 23.4046 57.824 23.4046 56.5122C23.4046 56.0807 23.6775 55.8045 24.1381 55.8045C24.5987 55.8045 24.8887 56.0807 24.8887 56.4949V56.702H25.9634V56.4777C25.9634 55.4938 25.2298 54.8551 24.121 54.8551C23.0122 54.8551 22.3128 55.4593 22.3128 56.5294C22.3128 58.7216 24.974 57.9793 24.974 59.2912C24.974 59.7572 24.6328 60.0679 24.1551 60.0679C23.6775 60.0679 23.3363 59.74 23.3363 59.2567V59.0495H22.2616V59.2739C22.2616 60.3268 23.0293 61.0173 24.1722 61.0173ZM19.2252 55.839C19.754 55.839 20.1122 56.167 20.1122 56.702V57.4443H18.3381V56.702C18.3381 56.167 18.6964 55.839 19.2252 55.839ZM21.204 58.3591V56.7538C21.204 55.6146 20.4022 54.8551 19.2422 54.8551C18.0823 54.8551 17.2464 55.5973 17.2464 56.7366V59.1531C17.2464 60.2923 18.0311 61.0345 19.2422 61.0345C20.4534 61.0345 21.204 60.3096 21.204 59.1876V59.0668H20.1122V59.1704C20.1122 59.7054 19.754 60.0334 19.2422 60.0334C18.6793 60.0334 18.3381 59.6882 18.3381 59.1704V58.3764H21.204V58.3591ZM10.8494 60.8792H12.1288L12.9817 56.6503H13.0499L13.9029 60.8792H15.1823L16.4958 54.9932H15.3358L14.517 59.5328H14.4317L13.5617 54.9932H12.5041L11.6341 59.5328H11.5488L10.73 54.9932H9.51878L10.8494 60.8792ZM6.80645 60.0161C6.26057 60.0161 5.90234 59.6709 5.90234 59.1358V56.7538C5.90234 56.236 6.26057 55.8735 6.80645 55.8735C7.35233 55.8735 7.6935 56.236 7.6935 56.7538V59.1358C7.6935 59.6709 7.33527 60.0161 6.80645 60.0161ZM6.80645 61.0345C7.9835 61.0345 8.78526 60.2751 8.78526 59.1531V56.7538C8.78526 55.6319 8.00056 54.8724 6.80645 54.8724C5.61234 54.8724 4.81058 55.6319 4.81058 56.7538V59.1531C4.81058 60.2751 5.59528 61.0345 6.80645 61.0345ZM1.17708 59.8263V53.0082H0.0170898V60.8964H3.78706V59.8263H1.16002H1.17708Z" fill="#21384E"/>
<path fill-rule="evenodd" clip-rule="evenodd" d="M61.3772 28.0144C60.7289 28.7912 60.4048 29.6197 60.4048 30.5345C60.4048 31.4494 60.7289 32.2779 61.3942 33.0374C62.0595 33.7968 62.8954 34.1766 63.9189 34.1766C64.9424 34.1766 65.8124 33.8141 66.5289 33.0719C67.2454 32.3297 67.6036 31.4839 67.6036 30.5518C67.6036 29.6197 67.2795 28.7739 66.5971 28.0144C65.9318 27.255 65.0448 26.8752 63.953 26.8752C62.8613 26.8752 62.0083 27.255 61.3601 28.0317L61.3772 28.0144ZM53.0184 48.1406V23.1814C53.0184 22.5255 53.0355 22.0422 53.0696 21.7315C53.1037 21.4208 53.2231 21.0583 53.4278 20.6613C53.8202 19.8846 54.7755 19.5048 56.2596 19.5048C57.7437 19.5048 58.7501 19.6947 59.279 20.0744C59.7907 20.4542 60.0978 21.0238 60.1831 21.766C61.2578 20.2816 62.9295 19.5393 65.2324 19.5393C67.5354 19.5393 69.7018 20.644 71.7659 22.8362C73.813 25.0283 74.8535 27.5829 74.8535 30.4827C74.8535 33.3826 73.83 35.9372 71.8 38.1293C69.753 40.3215 67.5865 41.4261 65.2836 41.4261C62.9807 41.4261 61.2919 40.7702 60.2513 39.4584V48.0889C60.2513 48.7448 60.2342 49.2281 60.1831 49.5388C60.1319 49.8495 60.0125 50.2119 59.8078 50.6262C59.6031 51.0405 59.2278 51.3339 58.7331 51.5065C58.2213 51.6791 57.539 51.7654 56.669 51.7654C55.799 51.7654 55.0996 51.6791 54.5707 51.5065C54.0419 51.3339 53.6837 51.0405 53.479 50.6435C53.2743 50.2465 53.1378 49.884 53.1037 49.5733C53.0696 49.2626 53.0525 48.7793 53.0525 48.1234L53.0184 48.1406ZM34.595 30.7934C34.595 31.7255 34.9703 32.5713 35.6868 33.3308C36.4203 34.0903 37.3073 34.47 38.3479 34.47C39.3885 34.47 40.2585 34.0903 40.9408 33.3135C41.6403 32.5368 41.9814 31.691 41.9814 30.7762C41.9814 29.8613 41.6573 28.981 40.992 28.187C40.3267 27.393 39.4397 26.996 38.3309 26.996C37.222 26.996 36.3179 27.393 35.6356 28.187C34.9362 28.981 34.595 29.8441 34.595 30.7934ZM42.2885 21.9041C42.4591 20.2988 43.5679 19.5048 45.6149 19.5048C46.7067 19.5048 47.5255 19.5911 48.0714 19.7637C48.6002 19.9363 48.9755 20.2298 49.1973 20.6613C49.402 21.0928 49.5384 21.4553 49.5725 21.8005C49.6067 22.1285 49.6408 22.6118 49.6408 23.2677V38.2329C49.6408 38.8888 49.6237 39.3721 49.5725 39.7001C49.5384 40.028 49.419 40.4078 49.2143 40.8393C48.822 41.5815 47.8496 41.944 46.3314 41.944C44.8132 41.944 43.7726 41.7541 43.2438 41.3571C42.732 40.9774 42.425 40.4078 42.3397 39.6655C41.2991 41.1845 39.5591 41.9267 37.1197 41.9267C34.6803 41.9267 32.4286 40.8048 30.3474 38.5436C28.2662 36.2997 27.2257 33.676 27.2257 30.7071C27.2257 27.7383 28.2662 25.1146 30.3645 22.8879C32.4627 20.6613 34.7656 19.5393 37.2732 19.5393C38.2285 19.5393 39.0985 19.7119 39.8832 20.0572C40.6679 20.4024 41.2308 20.7131 41.5379 21.0238C41.845 21.3172 42.1008 21.6106 42.3055 21.9041H42.2885ZM21.4257 34.7289C22.5175 34.7289 23.3192 34.867 23.8139 35.1259C24.3086 35.4021 24.6498 35.7818 24.8204 36.2997C25.008 36.8175 25.0933 37.4734 25.0933 38.2674C25.0933 39.0614 25.0251 39.7001 24.8886 40.1834C24.7351 40.6667 24.5816 41.0464 24.3769 41.2881C24.1892 41.547 23.8822 41.7196 23.4898 41.8404C23.0463 42.013 22.3298 42.0993 21.3404 42.0993H3.76994C3.12171 42.0993 2.5076 41.9267 1.91055 41.5815C0.665261 40.8738 0.0511475 39.7518 0.0511475 38.2156C0.0511475 37.4734 0.221734 36.8693 0.562908 36.4205L13.664 18.0894H3.94053C3.27524 18.0894 2.76348 18.0722 2.43937 18.0204C2.11525 17.9859 1.7229 17.865 1.27937 17.6579C0.460556 17.2609 0.0511475 16.1907 0.0511475 14.4646C0.0511475 12.635 0.426439 11.5303 1.19408 11.1333C1.62055 10.9089 1.99584 10.7708 2.31995 10.7363C2.64407 10.7018 3.13877 10.6672 3.82112 10.6672H20.7945C21.4428 10.6672 22.0569 10.8398 22.6539 11.1851C23.2339 11.513 23.6945 11.9791 24.0357 12.5487C24.3598 13.1183 24.5304 13.7742 24.5304 14.5509C24.5304 15.3277 24.3598 15.9318 24.0186 16.3979L10.9346 34.7289H21.4428H21.4257Z" fill="#F07100"/>
<path fill-rule="evenodd" clip-rule="evenodd" d="M156.821 27.0823L154.074 26.9097V32.813C154.074 33.5897 154.194 34.1421 154.432 34.4873C154.671 34.8325 155.115 35.0051 155.78 35.0051C156.445 35.0051 156.94 35.0224 157.298 35.0741C157.657 35.1259 158.032 35.264 158.424 35.4884C159.072 35.8509 159.397 36.8175 159.397 38.3537C159.397 40.1488 159.004 41.2535 158.22 41.6505C157.793 41.8577 157.435 41.9785 157.094 42.013C156.77 42.0475 156.309 42.0821 155.678 42.0821C152.744 42.0821 150.526 41.4089 149.008 40.0798C147.49 38.7334 146.722 36.4723 146.722 33.279V26.9615C146.193 27.0478 145.613 27.0823 144.999 27.0823C144.385 27.0823 143.873 26.8407 143.464 26.3574C143.054 25.8741 142.85 25.0456 142.85 23.8891C142.85 22.7326 142.918 21.8696 143.054 21.3517C143.191 20.8166 143.378 20.4542 143.634 20.2125C144.078 19.8328 144.658 19.6602 145.323 19.6602L146.722 19.8328V15.4312C146.722 14.7753 146.739 14.292 146.79 13.9813C146.824 13.6706 146.961 13.3254 147.2 12.9629C147.558 12.2552 148.65 11.8928 150.458 11.8928C152.368 11.8928 153.511 12.4106 153.87 13.4635C154.006 13.9123 154.074 14.6545 154.074 15.6384V19.8328C155.32 19.7119 156.241 19.6602 156.872 19.6602C157.503 19.6602 157.981 19.6774 158.305 19.7292C158.629 19.7637 159.004 19.9018 159.431 20.1262C160.164 20.5059 160.54 21.5934 160.54 23.423C160.54 25.2527 160.164 26.3229 159.397 26.7199C158.97 26.927 158.595 27.0478 158.271 27.0823C157.947 27.1169 157.452 27.1514 156.804 27.1514L156.821 27.0823ZM139.711 19.781C140.24 19.9536 140.683 20.247 141.041 20.6613C141.4 21.0756 141.57 21.7315 141.57 22.6463C141.57 23.5611 141.297 24.5623 140.768 25.6497C140.223 26.7371 139.455 27.2722 138.448 27.2722C137.937 27.2722 137.459 27.1514 136.981 26.927C136.521 26.7026 135.907 26.5818 135.156 26.5818C134.406 26.5818 133.689 26.858 133.024 27.393C132.359 27.9281 132.034 28.584 132.034 29.3608V38.3364C132.034 38.9924 132 39.4757 131.966 39.8209C131.932 40.1488 131.796 40.5286 131.574 40.9601C131.147 41.7023 130.056 42.0648 128.282 42.0648C126.934 42.0648 125.962 41.8232 125.364 41.3398C124.921 40.9428 124.665 40.3215 124.597 39.4929V23.2504C124.597 22.5945 124.614 22.1112 124.665 21.766C124.699 21.438 124.819 21.0756 125.023 20.6786C125.416 19.9018 126.524 19.5221 128.316 19.5221C130.004 19.5221 131.062 19.85 131.489 20.5059C131.796 20.972 131.949 21.438 131.949 21.9213C132.086 21.7142 132.29 21.4726 132.563 21.1964C132.836 20.9202 133.399 20.5232 134.269 20.0399C135.139 19.5566 135.907 19.3149 136.572 19.3149C137.237 19.3149 137.783 19.3495 138.244 19.4185C138.687 19.4876 139.182 19.6084 139.728 19.781H139.711ZM106.173 30.8107C106.173 31.7428 106.532 32.5886 107.265 33.3481C107.999 34.1075 108.886 34.4873 109.926 34.4873C110.967 34.4873 111.837 34.1075 112.519 33.3308C113.202 32.5541 113.56 31.7083 113.56 30.7934C113.56 29.8786 113.219 28.9983 112.57 28.2043C111.905 27.4103 111.018 27.0133 109.909 27.0133C108.8 27.0133 107.896 27.4103 107.197 28.2043C106.515 28.9983 106.156 29.8614 106.156 30.8107H106.173ZM113.85 21.9213C114.02 20.3161 115.129 19.5221 117.193 19.5221C118.285 19.5221 119.104 19.6084 119.65 19.781C120.179 19.9536 120.554 20.247 120.776 20.6786C120.98 21.1101 121.117 21.4726 121.151 21.8178C121.185 22.1457 121.219 22.629 121.219 23.285V38.2501C121.219 38.9061 121.202 39.3894 121.151 39.7173C121.1 40.0453 120.98 40.425 120.793 40.8565C120.4 41.5988 119.428 41.9612 117.91 41.9612C116.392 41.9612 115.351 41.7714 114.822 41.3744C114.31 40.9946 114.003 40.425 113.918 39.6828C112.877 41.2018 111.138 41.944 108.698 41.944C106.259 41.944 104.007 40.822 101.926 38.5608C99.8447 36.3169 98.8041 33.6933 98.8041 30.7244C98.8041 27.7555 99.8447 25.1319 101.943 22.9052C104.041 20.6786 106.344 19.5566 108.852 19.5566C109.807 19.5566 110.677 19.7292 111.479 20.0744C112.263 20.4196 112.826 20.7303 113.116 21.041C113.423 21.3345 113.679 21.6279 113.884 21.9213H113.85ZM84.543 30.7934C84.543 32.0017 84.9353 32.951 85.72 33.607C86.5218 34.2801 87.3406 34.6081 88.2277 34.6081C89.1147 34.6081 89.9506 34.3492 90.7182 33.8141C91.5029 33.279 92.1171 33.0201 92.5947 33.0201C93.4476 33.0201 94.4712 33.7796 95.6823 35.2813C96.3306 36.1098 96.6547 36.852 96.6547 37.5079C96.6547 38.5781 95.887 39.5965 94.3347 40.5458C92.7312 41.6851 90.7694 42.2547 88.4153 42.2547C85.8053 42.2547 83.2807 41.3053 80.8583 39.3894C79.6983 38.4745 78.7601 37.2663 78.0266 35.7301C77.2931 34.2111 76.9348 32.5195 76.9348 30.6899C76.9348 28.8602 77.3101 27.1859 78.0266 25.6842C78.7601 24.1998 79.6983 22.9915 80.8583 22.0767C83.1954 20.1953 85.6859 19.2632 88.33 19.2632C89.4047 19.2632 90.4453 19.4185 91.4518 19.7119C92.4582 20.0226 93.2088 20.2988 93.6865 20.5923L94.3688 21.0238C94.8806 21.369 95.2729 21.6452 95.5459 21.835C96.2794 22.4046 96.6376 23.0606 96.6376 23.7683C96.6376 24.476 96.3476 25.3217 95.7506 26.2366C94.7441 27.8073 93.7718 28.584 92.8335 28.584C92.3047 28.584 91.5371 28.2733 90.5477 27.652C90.0359 27.1687 89.3194 26.927 88.3812 26.927C87.443 26.927 86.5559 27.2722 85.7371 27.9454C84.9183 28.6358 84.5089 29.5679 84.5089 30.7934H84.543Z" fill="#00A759"/>
<path fill-rule="evenodd" clip-rule="evenodd" d="M134.457 13.4635C132.956 13.4635 131.983 12.4796 131.983 11.0297V4.45331C131.983 3.0034 132.956 2.01952 134.457 2.01952C135.958 2.01952 136.913 3.0034 136.913 4.45331V11.0297C136.913 12.4796 135.924 13.4635 134.457 13.4635ZM134.457 15.5003C137.254 15.5003 139.097 13.7569 139.097 11.0815V4.43605C139.097 1.74335 137.271 0.0172609 134.457 0.0172609C131.642 0.0172609 129.783 1.76061 129.783 4.43605V11.0815C129.783 13.7742 131.659 15.5003 134.457 15.5003ZM125.109 0.276174V6.66271H120.827V0.276174H118.643V15.2241H120.827V8.69949H125.109V15.2241H127.292V0.276174H125.109ZM112.025 15.5003C114.652 15.5003 116.374 13.9295 116.374 11.1678C116.374 5.76514 109.909 7.3704 109.909 3.97001C109.909 2.74448 110.694 2.03679 111.922 2.03679C113.15 2.03679 114.003 2.779 114.003 3.91822V4.47057H116.136V3.86644C116.136 1.57074 114.498 0 111.922 0C109.346 0 107.726 1.5017 107.726 4.12535C107.726 9.3554 114.191 7.88823 114.191 11.3404C114.191 12.6695 113.338 13.4635 112.007 13.4635C110.677 13.4635 109.773 12.6177 109.773 11.3749V10.719H107.589V11.3749C107.589 13.8605 109.363 15.5003 112.025 15.5003ZM105.696 2.31296V0.276174H98.224V15.2241H105.696V13.1873H100.408V8.68223H105.013V6.67997H100.408V2.2957H105.696V2.31296ZM89.1829 2.31296H91.1958C92.8335 2.31296 93.7205 3.29683 93.7205 4.97114C93.7205 6.64544 92.8164 7.61205 91.1958 7.61205H89.1829V2.2957V2.31296ZM93.567 15.2414H96.1258L93.4647 9.23458C95.0511 8.57866 95.9382 7.09423 95.9382 4.91935C95.9382 1.96774 94.2835 0.276174 91.4176 0.276174H86.9994V15.2241H89.1829V9.5798H91.3494L93.5841 15.2241L93.567 15.2414ZM84.6794 2.31296V0.276174H77.3783V15.2241H79.5618V9.16553H83.8606V7.11149H79.5618V2.2957H84.6794V2.31296Z" fill="#21384E"/>
</g>
<defs>
<clipPath id="clip0_4_5392">
<rect width="161" height="61" fill="white"/>
</clipPath>
</defs>
</svg>
