<svg width="21" height="20" viewBox="0 0 21 20" fill="none" xmlns="http://www.w3.org/2000/svg">
<path d="M20 8.65999C19.9994 8.65953 19.999 8.65892 19.9985 8.65846L11.8401 0.500337C11.4923 0.152436 11.03 -0.0390625 10.5382 -0.0390625C10.0464 -0.0390625 9.58405 0.152436 9.23615 0.500337L1.08199 8.65434C1.07925 8.65709 1.07635 8.65999 1.07375 8.66274C0.359639 9.38097 0.36086 10.5463 1.07726 11.2627C1.40456 11.5901 1.83669 11.7797 2.29888 11.7996C2.3178 11.8015 2.33672 11.8024 2.3558 11.8024H2.68081V17.8061C2.68081 18.9943 3.64761 19.961 4.83581 19.961H8.02765C8.35129 19.961 8.61359 19.6985 8.61359 19.375V14.668C8.61359 14.1259 9.05472 13.6849 9.59687 13.6849H11.4795C12.0216 13.6849 12.4626 14.1259 12.4626 14.668V19.375C12.4626 19.6985 12.7249 19.961 13.0486 19.961H16.2404C17.4288 19.961 18.3954 18.9943 18.3954 17.8061V11.8024H18.6969C19.1886 11.8024 19.6509 11.6109 19.999 11.2628C20.7161 10.5454 20.7164 9.37792 20 8.65999ZM19.1703 10.4343C19.0438 10.5608 18.8756 10.6305 18.6969 10.6305H17.8095C17.4858 10.6305 17.2235 10.8928 17.2235 11.2165V17.8061C17.2235 18.3481 16.7826 18.7891 16.2404 18.7891H13.6345V14.668C13.6345 13.4798 12.6679 12.513 11.4795 12.513H9.59687C8.40851 12.513 7.44171 13.4798 7.44171 14.668V18.7891H4.83581C4.29382 18.7891 3.85269 18.3481 3.85269 17.8061V11.2165C3.85269 10.8928 3.59039 10.6305 3.26675 10.6305H2.39456C2.3854 10.6299 2.3764 10.6294 2.36709 10.6293C2.19253 10.6262 2.0288 10.557 1.90612 10.4341C1.64519 10.1732 1.64519 9.74856 1.90612 9.48748C1.90627 9.48748 1.90627 9.48732 1.90643 9.48717L1.90688 9.48671L10.065 1.32889C10.1914 1.2024 10.3594 1.13281 10.5382 1.13281C10.7169 1.13281 10.8849 1.2024 11.0114 1.32889L19.1677 9.48503C19.1689 9.48626 19.1703 9.48748 19.1715 9.4887C19.431 9.75008 19.4306 10.1738 19.1703 10.4343Z" fill="#AA5000"/>
</svg>
