<svg width="21" height="20" viewBox="0 0 21 20" fill="none" xmlns="http://www.w3.org/2000/svg">
<g clip-path="url(#clip0_102_1797)">
<path d="M10.3575 9.63408C11.681 9.63408 12.827 9.15938 13.7635 8.22279C14.6998 7.28636 15.1747 6.14058 15.1747 4.81689C15.1747 3.49365 14.7 2.34771 13.7634 1.41098C12.8268 0.4747 11.6809 0 10.3575 0C9.03378 0 7.888 0.4747 6.95157 1.41113C6.01514 2.34756 5.54028 3.49349 5.54028 4.81689C5.54028 6.14058 6.01514 7.28652 6.95157 8.22295C7.8883 9.15922 9.03423 9.63408 10.3575 9.63408ZM7.78042 2.23983C8.49896 1.5213 9.34185 1.17203 10.3575 1.17203C11.3729 1.17203 12.216 1.5213 12.9347 2.23983C13.6532 2.95852 14.0026 3.80157 14.0026 4.81689C14.0026 5.83251 13.6532 6.6754 12.9347 7.39409C12.216 8.11278 11.3729 8.46205 10.3575 8.46205C9.34216 8.46205 8.49926 8.11263 7.78042 7.39409C7.06173 6.67555 6.71231 5.83251 6.71231 4.81689C6.71231 3.80157 7.06173 2.95852 7.78042 2.23983Z" fill="#AA5000"/>
<path d="M18.7863 15.3794C18.7592 14.9896 18.7046 14.5645 18.6242 14.1156C18.543 13.6634 18.4385 13.2358 18.3134 12.845C18.184 12.4411 18.0084 12.0423 17.7909 11.66C17.5656 11.2633 17.3007 10.9178 17.0034 10.6336C16.6926 10.3362 16.312 10.0971 15.872 9.92267C15.4334 9.74918 14.9475 9.66129 14.4276 9.66129C14.2234 9.66129 14.026 9.74506 13.6447 9.99332C13.41 10.1464 13.1355 10.3234 12.8291 10.5191C12.5671 10.6861 12.2122 10.8425 11.7738 10.9841C11.3461 11.1225 10.9118 11.1927 10.483 11.1927C10.0546 11.1927 9.62032 11.1225 9.19231 10.9841C8.75438 10.8426 8.39931 10.6862 8.13778 10.5193C7.83428 10.3253 7.55962 10.1483 7.32143 9.99316C6.94042 9.7449 6.74297 9.66113 6.53881 9.66113C6.01879 9.66113 5.53295 9.74918 5.09457 9.92282C4.65481 10.0969 4.2741 10.336 3.96298 10.6337C3.66574 10.9181 3.40085 11.2635 3.17563 11.66C2.95849 12.0423 2.78271 12.441 2.65332 12.8452C2.52835 13.236 2.42383 13.6634 2.34265 14.1156C2.26208 14.5639 2.20761 14.9892 2.1806 15.3798C2.15405 15.7617 2.14062 16.1592 2.14062 16.5608C2.14062 17.6048 2.4725 18.45 3.12695 19.0733C3.77331 19.6884 4.62841 20.0003 5.6686 20.0003H15.2987C16.3386 20.0003 17.1937 19.6884 17.8402 19.0733C18.4948 18.4505 18.8267 17.605 18.8267 16.5607C18.8265 16.1577 18.813 15.7602 18.7863 15.3794ZM17.0321 18.2242C16.605 18.6307 16.038 18.8283 15.2986 18.8283H5.6686C4.92901 18.8283 4.362 18.6307 3.93506 18.2243C3.5162 17.8256 3.31265 17.2814 3.31265 16.5608C3.31265 16.1861 3.32501 15.8161 3.34973 15.4608C3.37384 15.1123 3.42312 14.7295 3.49621 14.3227C3.56839 13.9209 3.66024 13.5439 3.7695 13.2025C3.87433 12.8752 4.0173 12.5511 4.19461 12.2389C4.36383 11.9414 4.55853 11.6861 4.77337 11.4804C4.97433 11.288 5.22762 11.1306 5.52609 11.0124C5.80212 10.9032 6.11233 10.8434 6.44909 10.8344C6.49013 10.8562 6.56322 10.8979 6.68163 10.9751C6.92257 11.1321 7.20028 11.3112 7.50728 11.5073C7.85335 11.7279 8.29921 11.9272 8.8319 12.0992C9.37648 12.2753 9.9319 12.3647 10.4832 12.3647C11.0345 12.3647 11.5901 12.2753 12.1343 12.0993C12.6675 11.9271 13.1132 11.7279 13.4597 11.507C13.7739 11.3062 14.0438 11.1322 14.2848 10.9751C14.4032 10.898 14.4763 10.8562 14.5173 10.8344C14.8542 10.8434 15.1644 10.9032 15.4406 11.0124C15.7389 11.1306 15.9922 11.2882 16.1932 11.4804C16.408 11.686 16.6027 11.9412 16.7719 12.2391C16.9494 12.5511 17.0925 12.8754 17.1972 13.2024C17.3066 13.5442 17.3986 13.9211 17.4706 14.3225C17.5436 14.7301 17.593 15.1131 17.6171 15.461V15.4613C17.642 15.8151 17.6545 16.185 17.6547 16.5608C17.6545 17.2815 17.451 17.8256 17.0321 18.2242Z" fill="#AA5000"/>
</g>
<defs>
<clipPath id="clip0_102_1797">
<rect width="20" height="20" fill="white" transform="translate(0.5)"/>
</clipPath>
</defs>
</svg>
