<svg width="32" height="33" viewBox="0 0 32 33" fill="none" xmlns="http://www.w3.org/2000/svg">
<rect y="0.75" width="32" height="32" rx="16" fill="white"/>
<g clip-path="url(#clip0_2256_2841)">
<path d="M18.3828 13.2344H12.5234C12.1996 13.2344 11.9375 12.9723 11.9375 12.6484V10.3047C11.9375 9.98082 12.1996 9.71875 12.5234 9.71875H18.3828C18.7067 9.71875 18.9687 9.98082 18.9687 10.3047V12.6484C18.9687 12.9723 18.7067 13.2344 18.3828 13.2344Z" fill="#FFD580"/>
<path d="M22.3125 7.54665C22.0836 7.31778 21.7128 7.31778 21.4839 7.54665L20.7263 8.30427L19.9687 7.54665C19.7398 7.31778 19.369 7.31778 19.1402 7.54665C18.9113 7.77552 18.9113 8.14634 19.1402 8.37521L20.312 9.54708C20.4265 9.66153 20.5764 9.71876 20.7263 9.71876C20.8762 9.71876 21.0261 9.66153 21.1405 9.54708L22.3124 8.37521C22.5414 8.1463 22.5414 7.77552 22.3125 7.54665Z" fill="#F24973"/>
<path d="M21.1409 9.54708L22.3127 8.37521C22.5416 8.14634 22.5416 7.77552 22.3127 7.54665C22.0839 7.31778 21.713 7.31778 21.4842 7.54665L20.7266 8.30427V9.71876C20.8765 9.71876 21.0264 9.66153 21.1409 9.54708Z" fill="#D92C49"/>
<path d="M23.0703 13.2344H18.3828C18.0589 13.2344 17.7969 12.9723 17.7969 12.6484V9.13281C17.7969 8.80895 18.0589 8.54688 18.3828 8.54688H23.0703C23.3942 8.54688 23.6562 8.80895 23.6562 9.13281V12.6484C23.6562 12.9723 23.3942 13.2344 23.0703 13.2344Z" fill="#8AE68A"/>
<path d="M23.0703 8.54688H20.7266V13.2344H23.0703C23.3942 13.2344 23.6562 12.9723 23.6562 12.6484V9.13281C23.6562 8.80895 23.3942 8.54688 23.0703 8.54688Z" fill="#60BF80"/>
<path d="M9.51793 12.0628L8.56027 8.54736H6.58594C6.26207 8.54736 6 8.28529 6 7.96143C6 7.63756 6.26207 7.37549 6.58594 7.37549H9.00773C9.27211 7.37549 9.50328 7.55229 9.57309 7.80752L10.8502 12.495L9.51793 12.0628Z" fill="#80334D"/>
<path d="M21.8984 22.6095H12.5234C12.2007 22.6095 11.9375 22.3468 11.9375 22.0235C11.9375 21.7208 12.1641 21.4702 12.4639 21.4404C12.7855 21.4084 13.0213 21.1211 12.988 20.799C12.9571 20.4774 12.6687 20.2537 12.3472 20.2743C11.4454 20.3641 10.7656 21.116 10.7656 22.0235C10.7656 22.9928 11.5541 23.7813 12.5234 23.7813H21.8984C22.2223 23.7813 22.4844 23.5192 22.4844 23.1954C22.4844 22.8715 22.2223 22.6095 21.8984 22.6095Z" fill="#80334D"/>
<path d="M21.8984 22.6094H18.3828V23.7812H21.8984C22.2223 23.7812 22.4844 23.5192 22.4844 23.1953C22.4844 22.8714 22.2223 22.6094 21.8984 22.6094Z" fill="#59243F"/>
<path d="M12.5235 21.4261C12.2614 21.4261 12.0279 21.2515 11.9581 20.9946L9.51733 12.0625H25.4141C25.5858 12.0625 25.7494 12.138 25.8616 12.2696C25.9726 12.4012 26.0206 12.5746 25.992 12.7446L24.8201 19.7758C24.7767 20.0373 24.5638 20.2364 24.2994 20.2628C10.8794 21.5905 12.6642 21.4261 12.5235 21.4261Z" fill="#F24973"/>
<path d="M25.4141 12.0625H18.3828V20.8491C19.9215 20.6963 21.8559 20.5045 24.2994 20.2628C24.5638 20.2364 24.7766 20.0373 24.8201 19.7758L25.992 12.7446C26.0206 12.5746 25.9725 12.4012 25.8615 12.2696C25.7494 12.138 25.5857 12.0625 25.4141 12.0625Z" fill="#D92C49"/>
<path d="M21.8984 26.125C20.9291 26.125 20.1406 25.3365 20.1406 24.3672C20.1406 23.3979 20.9291 22.6094 21.8984 22.6094C22.8677 22.6094 23.6562 23.3979 23.6562 24.3672C23.6562 25.3365 22.8677 26.125 21.8984 26.125Z" fill="#59243F"/>
<path d="M21.8984 24.9531C22.222 24.9531 22.4844 24.6908 22.4844 24.3672C22.4844 24.0436 22.222 23.7812 21.8984 23.7812C21.5748 23.7812 21.3125 24.0436 21.3125 24.3672C21.3125 24.6908 21.5748 24.9531 21.8984 24.9531Z" fill="#D9E5FF"/>
<path d="M13.6953 26.125C12.726 26.125 11.9375 25.3365 11.9375 24.3672C11.9375 23.3979 12.726 22.6094 13.6953 22.6094C14.6646 22.6094 15.4531 23.3979 15.4531 24.3672C15.4531 25.3365 14.6646 26.125 13.6953 26.125Z" fill="#80334D"/>
<path d="M13.6953 24.9531C14.0189 24.9531 14.2812 24.6908 14.2812 24.3672C14.2812 24.0436 14.0189 23.7812 13.6953 23.7812C13.3717 23.7812 13.1094 24.0436 13.1094 24.3672C13.1094 24.6908 13.3717 24.9531 13.6953 24.9531Z" fill="#ECF2FF"/>
<path d="M21.8984 17.9219C21.5746 17.9219 21.3125 17.6598 21.3125 17.3359V14.9922C21.3125 14.6683 21.5746 14.4062 21.8984 14.4062C22.2223 14.4062 22.4844 14.6683 22.4844 14.9922V17.3359C22.4844 17.6598 22.2223 17.9219 21.8984 17.9219Z" fill="#D9E5FF"/>
<path d="M14.8672 17.9219C14.5433 17.9219 14.2812 17.6598 14.2812 17.3359V14.9922C14.2812 14.6683 14.5433 14.4062 14.8672 14.4062C15.1911 14.4062 15.4531 14.6683 15.4531 14.9922V17.3359C15.4531 17.6598 15.1911 17.9219 14.8672 17.9219Z" fill="#ECF2FF"/>
<path d="M18.3828 17.9219C18.0589 17.9219 17.7969 17.6598 17.7969 17.3359V14.9922C17.7969 14.6683 18.0589 14.4062 18.3828 14.4062C18.7067 14.4062 18.9688 14.6683 18.9688 14.9922V17.3359C18.9688 17.6598 18.7067 17.9219 18.3828 17.9219Z" fill="#ECF2FF"/>
<path d="M18.9688 17.3359V14.9922C18.9688 14.6683 18.7067 14.4062 18.3828 14.4062V17.9219C18.7067 17.9219 18.9688 17.6598 18.9688 17.3359Z" fill="#D9E5FF"/>
</g>
<defs>
<clipPath id="clip0_2256_2841">
<rect width="20" height="20" fill="white" transform="translate(6 6.75)"/>
</clipPath>
</defs>
</svg>
