<svg width="21" height="20" viewBox="0 0 21 20" fill="none" xmlns="http://www.w3.org/2000/svg">
<g clip-path="url(#clip0_3680_2207)">
<path d="M19.5909 10.0839V7.27292C19.5909 6.31975 18.8515 5.54458 17.9174 5.46941L15.307 0.909826C15.065 0.488128 14.6744 0.186727 14.207 0.0615729C13.7418 -0.062729 13.2553 0.00255401 12.8389 0.244894L3.8901 5.45475H2.31841C1.31569 5.45475 0.500244 6.27015 0.500244 7.27292V18.1818C0.500244 19.1846 1.31564 20 2.31841 20H17.7727C18.7754 20 19.5909 19.1846 19.5909 18.1818V15.3709C20.1188 15.1826 20.4999 14.6828 20.4999 14.091V11.3638C20.4999 10.772 20.1188 10.2721 19.5909 10.0839ZM16.8611 5.45475H12.8993L15.8707 3.72484L16.8611 5.45475ZM15.419 2.93594L11.0926 5.45475H9.29803L14.9703 2.15225L15.419 2.93594ZM13.2966 1.03055C13.5021 0.910252 13.7422 0.878292 13.9717 0.93957C14.2039 1.0017 14.3974 1.15174 14.5177 1.36169L14.5187 1.36336L7.49137 5.45475H5.69689L13.2966 1.03055ZM18.6818 18.1818C18.6818 18.683 18.2738 19.0909 17.7727 19.0909H2.31841C1.81728 19.0909 1.40935 18.683 1.40935 18.1818V7.27292C1.40935 6.77179 1.81728 6.36386 2.31841 6.36386H17.7727C18.2738 6.36386 18.6818 6.77179 18.6818 7.27292V10.0001H15.9546C14.4507 10.0001 13.2273 11.2235 13.2273 12.7274C13.2273 14.2313 14.4507 15.4546 15.9546 15.4546H18.6818V18.1818ZM19.5909 14.091C19.5909 14.3418 19.3872 14.5455 19.1363 14.5455H15.9546C14.9518 14.5455 14.1364 13.7301 14.1364 12.7274C14.1364 11.7246 14.9518 10.9092 15.9546 10.9092H19.1363C19.3871 10.9092 19.5909 11.1129 19.5909 11.3638V14.091Z" fill="#919191"/>
<path d="M15.9545 11.8184C15.4533 11.8184 15.0454 12.2263 15.0454 12.7274C15.0454 13.2285 15.4533 13.6365 15.9545 13.6365C16.4556 13.6365 16.8635 13.2285 16.8635 12.7274C16.8636 12.2263 16.4556 11.8184 15.9545 11.8184Z" fill="#919191"/>
</g>
<defs>
<clipPath id="clip0_3680_2207">
<rect width="20" height="20" fill="white" transform="translate(0.5)"/>
</clipPath>
</defs>
</svg>
