<svg width="42" height="42" viewBox="0 0 42 42" fill="none" xmlns="http://www.w3.org/2000/svg">
<rect width="42" height="42" rx="8" fill="#F4FFFA"/>
<path d="M21.0024 13.8462L22.113 17.4665C22.2055 17.7681 22.4621 17.9903 22.7737 18.0389L27.2528 18.7376C27.3955 18.7598 27.5404 18.7617 27.6841 18.7477C28.1313 18.7043 28.5491 18.7909 28.9303 19.0385C28.9767 19.0687 29.0368 19.0667 29.0792 19.0312L29.2508 18.887C29.3007 18.8451 29.3097 18.7722 29.2713 18.7196C29.1248 18.5187 28.7363 18.0629 28.166 17.9595C27.4291 17.8258 23.6474 16.8186 23.6474 16.8186L22.6085 13.6777L21.0024 13.8462Z" fill="#F4B185"/>
<path d="M21.0812 15.0459L21.6247 16.9527C21.6505 17.0433 21.7496 17.091 21.8365 17.0546L23.6239 16.3063C23.6877 16.2795 23.7175 16.2058 23.6901 16.1422L22.8781 14.2597C22.7396 13.9469 22.4477 13.7293 22.1084 13.6857C21.7296 13.6371 21.3571 13.8135 21.1546 14.1374L21.151 14.1432C20.9815 14.4146 20.9554 14.7517 21.0812 15.0459Z" fill="#40A74D"/>
<path d="M9.01865 25.5948L7.99143 24.122C7.9064 24.0001 7.74287 23.9623 7.61302 24.0347C7.46434 24.1175 7.41885 24.3101 7.51472 24.4507L8.73117 26.235C8.76507 26.2848 8.82138 26.3145 8.88157 26.3145H12.3676V25.6727H9.16797C9.10845 25.6727 9.0527 25.6436 9.01865 25.5948Z" fill="#3E4860"/>
<path d="M30.7985 20.0318L30.3609 19.4146C30.2975 19.3253 30.2635 19.2184 30.2635 19.1089V18.5175C30.2635 18.2256 30.0269 17.989 29.735 17.989H28.4997C28.2078 17.989 27.9712 18.2256 27.9712 18.5175V18.9329C27.9712 19.2247 28.2078 19.4613 28.4997 19.4613H28.8439C29.0177 19.4613 29.1803 19.5468 29.279 19.6898L29.9324 20.6375C30.1097 20.8947 30.4703 20.9427 30.7088 20.7409C30.9183 20.5637 30.9572 20.2556 30.7985 20.0318Z" fill="#3E4860"/>
<path d="M12.2363 24.7063H4.17253C4.07724 24.7063 4 24.6291 4 24.5338V24.1657C4 24.0704 4.07724 23.9932 4.17253 23.9932H12.2363V24.7063Z" fill="#3E4860"/>
<path d="M12.3676 26.7539L10.0416 29.4913C9.9955 29.5455 9.9922 29.6241 10.0336 29.682C10.0816 29.7493 10.1739 29.7671 10.2436 29.7225L13.8014 27.444L12.3676 26.7539Z" fill="#3E4860"/>
<path d="M14.2102 29.031C12.299 29.031 10.7498 30.5803 10.7498 32.4914C10.7498 34.4026 12.299 35.9519 14.2102 35.9519C16.1213 35.9519 17.6706 34.4026 17.6706 32.4914C17.6706 30.5803 16.1213 29.031 14.2102 29.031ZM14.2102 34.537C13.0804 34.537 12.1646 33.6212 12.1646 32.4914C12.1646 31.3617 13.0804 30.4459 14.2102 30.4459C15.3399 30.4459 16.2558 31.3617 16.2558 32.4914C16.2558 33.6212 15.3399 34.537 14.2102 34.537Z" fill="#3E4860"/>
<path d="M12.0456 33.0999C12.2995 34.0204 13.1348 34.6852 14.0884 34.7352C14.1281 34.7372 14.1677 34.7383 14.2072 34.7383C14.803 34.7383 15.3765 34.5028 15.7991 34.0803C16.2552 33.6241 16.4934 32.992 16.4526 32.3458C16.3815 31.2215 15.4801 30.3202 14.3559 30.2491C13.71 30.2084 13.0775 30.4465 12.6214 30.9026C12.0564 31.4676 11.8258 32.3027 12.0456 33.0999ZM13.0443 31.2585L13.7209 31.9011C13.7789 31.9562 13.791 32.0442 13.7499 32.1129L13.7499 32.113C13.696 32.203 13.5748 32.224 13.4941 32.157C13.2992 31.9954 12.9652 31.7185 12.7742 31.56C12.6906 31.4907 12.6757 31.3663 12.7444 31.2822C12.7472 31.2787 12.75 31.2753 12.7529 31.2718C12.8261 31.1833 12.961 31.1794 13.0443 31.2585ZM15.6492 31.2505C15.7689 31.3893 15.8688 31.5455 15.9447 31.7149C16.016 31.8741 15.8925 32.0525 15.7184 32.0413L14.9335 31.991L15.2632 31.3005C15.3356 31.1489 15.5394 31.1233 15.6492 31.2505ZM16.1053 32.6098C16.1049 32.6147 16.1046 32.6196 16.1042 32.6245C16.0961 32.7375 15.9907 32.8184 15.8784 32.8036L14.9528 32.6813C14.8736 32.6709 14.8122 32.6069 14.8049 32.5274C14.7953 32.4228 14.8814 32.3344 14.9862 32.3411L15.9174 32.4008C16.0264 32.4078 16.1123 32.5008 16.1053 32.6098ZM14.9096 33.0246L15.6694 33.125C15.8316 33.1464 15.9248 33.3272 15.8409 33.4678C15.7616 33.6006 15.6657 33.7243 15.5544 33.8356C15.5324 33.8576 15.51 33.8789 15.487 33.8995C15.3562 34.017 15.148 33.9576 15.1045 33.7873L14.9096 33.0246ZM14.429 34.1752L14.2593 33.2574C14.2447 33.1784 14.2871 33.0998 14.3611 33.0687L14.3613 33.0686C14.4576 33.0281 14.5673 33.0824 14.6136 33.2636L14.8244 34.0883C14.8514 34.1941 14.7894 34.3042 14.6836 34.3311C14.6787 34.3323 14.6739 34.3335 14.6691 34.3347C14.5591 34.3618 14.4496 34.2866 14.429 34.1752ZM14.428 31.9366L14.4279 31.9366C14.3257 31.9132 14.2684 31.8042 14.3071 31.7067L14.6536 30.8345C14.6937 30.7337 14.8089 30.6842 14.9096 30.7245L14.9216 30.7293C15.0282 30.772 15.075 30.8917 15.0255 30.9953L14.6205 31.8436C14.586 31.9158 14.506 31.9545 14.428 31.9366ZM13.9578 31.649L13.4032 31.1222C13.2833 31.0083 13.3169 30.8063 13.4692 30.7418C13.6415 30.6688 13.8245 30.6212 14.0123 30.6013C14.2175 30.5795 14.3239 30.7276 14.2477 30.9193L13.9578 31.649ZM13.2557 34.1351C13.1081 34.049 13.1095 33.834 13.2539 33.7426L13.9193 33.3214L14.0584 34.0739C14.0947 34.27 13.9667 34.3878 13.7726 34.3419C13.5885 34.2985 13.4148 34.228 13.2557 34.1351ZM12.6069 33.5112C12.6042 33.507 12.6015 33.5027 12.5988 33.4985C12.5384 33.4022 12.576 33.2743 12.6759 33.2201L13.4978 32.7743C13.568 32.7362 13.6553 32.7518 13.708 32.8119L13.708 32.812C13.7772 32.8909 13.7598 33.0129 13.6012 33.1133L12.8807 33.5693C12.7888 33.6275 12.6655 33.6029 12.6069 33.5112ZM12.3517 32.1014C12.3883 31.9307 12.5922 31.8586 12.7266 31.9701L13.331 32.4712L12.6573 32.8366C12.5112 32.9159 12.3302 32.8199 12.316 32.6542C12.3149 32.6413 12.314 32.6283 12.3131 32.6152C12.3022 32.4411 12.3159 32.2685 12.3517 32.1014Z" fill="#77727E"/>
<path d="M13.6127 31.5414C13.0453 31.9037 12.925 32.6778 13.3559 33.1952C13.7112 33.6218 14.3396 33.7194 14.8076 33.4206C15.3751 33.0583 15.4953 32.2842 15.0644 31.7668C14.7091 31.3401 14.0807 31.2426 13.6127 31.5414Z" fill="#E7E6E8"/>
<path d="M14.2101 32.9319C14.4592 32.9319 14.6612 32.73 14.6612 32.4809C14.6612 32.2317 14.4592 32.0298 14.2101 32.0298C13.961 32.0298 13.759 32.2317 13.759 32.4809C13.759 32.73 13.961 32.9319 14.2101 32.9319Z" fill="#3E4860"/>
<path d="M34.5395 29.031C32.6284 29.031 31.0791 30.5803 31.0791 32.4914C31.0791 34.4026 32.6284 35.9519 34.5395 35.9519C36.4507 35.9519 37.9999 34.4026 37.9999 32.4914C37.9999 30.5803 36.4507 29.031 34.5395 29.031ZM34.5395 34.537C33.4098 34.537 32.4939 33.6212 32.4939 32.4914C32.4939 31.3617 33.4098 30.4459 34.5395 30.4459C35.6693 30.4459 36.5851 31.3617 36.5851 32.4914C36.5851 33.6212 35.6693 34.537 34.5395 34.537Z" fill="#3E4860"/>
<path d="M32.375 33.0999C32.6289 34.0204 33.4642 34.6852 34.4178 34.7352C34.4574 34.7372 34.4971 34.7383 34.5366 34.7383C35.1324 34.7383 35.7059 34.5028 36.1284 34.0803C36.5845 33.6241 36.8227 32.992 36.7819 32.3458C36.7109 31.2215 35.8095 30.3202 34.6852 30.2491C34.0394 30.2084 33.4069 30.4465 32.9507 30.9026C32.3858 31.4676 32.1551 32.3027 32.375 33.0999ZM33.3736 31.2585L34.0502 31.9011C34.1083 31.9562 34.1203 32.0442 34.0792 32.1129L34.0792 32.113C34.0254 32.203 33.9042 32.224 33.8235 32.157C33.6286 31.9954 33.2946 31.7185 33.1035 31.56C33.0199 31.4907 33.0051 31.3663 33.0737 31.2822C33.0765 31.2787 33.0794 31.2753 33.0822 31.2718C33.1555 31.1833 33.2903 31.1794 33.3736 31.2585ZM35.9785 31.2505C36.0982 31.3893 36.1982 31.5455 36.274 31.7149C36.3453 31.8741 36.2219 32.0525 36.0478 32.0413L35.2628 31.991L35.5925 31.3005C35.6649 31.1489 35.8687 31.1233 35.9785 31.2505ZM36.4346 32.6098C36.4343 32.6147 36.4339 32.6196 36.4336 32.6245C36.4254 32.7375 36.32 32.8184 36.2077 32.8036L35.2822 32.6813C35.2029 32.6709 35.1415 32.6069 35.1342 32.5274C35.1247 32.4228 35.2107 32.3344 35.3155 32.3411L36.2467 32.4008C36.3557 32.4078 36.4416 32.5008 36.4346 32.6098ZM35.239 33.0246L35.9987 33.125C36.161 33.1464 36.2542 33.3272 36.1703 33.4678C36.0909 33.6006 35.9951 33.7243 35.8838 33.8356C35.8618 33.8576 35.8393 33.8789 35.8164 33.8995C35.6856 34.017 35.4774 33.9576 35.4339 33.7873L35.239 33.0246ZM34.7583 34.1752L34.5886 33.2574C34.574 33.1784 34.6164 33.0998 34.6905 33.0687L34.6906 33.0686C34.787 33.0281 34.8967 33.0824 34.943 33.2636L35.1537 34.0883C35.1807 34.1941 35.1187 34.3042 35.0129 34.3311C35.0081 34.3323 35.0033 34.3335 34.9984 34.3347C34.8884 34.3618 34.7789 34.2866 34.7583 34.1752ZM34.7573 31.9366L34.7572 31.9366C34.655 31.9132 34.5977 31.8042 34.6364 31.7067L34.983 30.8345C35.023 30.7337 35.1382 30.6842 35.2389 30.7245L35.2509 30.7293C35.3576 30.772 35.4043 30.8917 35.3548 30.9953L34.9498 31.8436C34.9153 31.9158 34.8353 31.9545 34.7573 31.9366ZM34.2871 31.649L33.7325 31.1222C33.6126 31.0083 33.6463 30.8063 33.7985 30.7418C33.9708 30.6688 34.1538 30.6212 34.3417 30.6013C34.5468 30.5795 34.6532 30.7276 34.5771 30.9193L34.2871 31.649ZM33.585 34.1351C33.4375 34.049 33.4388 33.834 33.5832 33.7426L34.2486 33.3214L34.3877 34.0739C34.424 34.27 34.296 34.3878 34.1019 34.3419C33.9178 34.2985 33.7441 34.228 33.585 34.1351ZM32.9362 33.5112C32.9335 33.507 32.9308 33.5027 32.9282 33.4985C32.8677 33.4022 32.9053 33.2743 33.0053 33.2201L33.8272 32.7743C33.8974 32.7362 33.9847 32.7518 34.0373 32.8119L34.0374 32.812C34.1066 32.8909 34.0892 33.0129 33.9306 33.1133L33.2101 33.5693C33.1181 33.6275 32.9948 33.6029 32.9362 33.5112ZM32.681 32.1014C32.7177 31.9307 32.9216 31.8586 33.056 31.9701L33.6603 32.4712L32.9867 32.8366C32.8405 32.9159 32.6595 32.8199 32.6454 32.6542C32.6443 32.6413 32.6433 32.6283 32.6425 32.6152C32.6315 32.4411 32.6452 32.2685 32.681 32.1014Z" fill="#77727E"/>
<path d="M33.9421 31.5414C33.3746 31.9037 33.2544 32.6778 33.6853 33.1952C34.0406 33.6218 34.6689 33.7194 35.1369 33.4206C35.7044 33.0583 35.8246 32.2842 35.3938 31.7668C35.0384 31.3401 34.4101 31.2426 33.9421 31.5414Z" fill="#E7E6E8"/>
<path d="M34.5395 32.932C34.7886 32.932 34.9906 32.73 34.9906 32.4809C34.9906 32.2317 34.7886 32.0298 34.5395 32.0298C34.2903 32.0298 34.0884 32.2317 34.0884 32.4809C34.0884 32.73 34.2903 32.932 34.5395 32.932Z" fill="#3E4860"/>
<path d="M32.6387 29.8021L34.1145 32.6995C34.2269 32.9199 34.4914 33.0148 34.7183 32.916C34.9497 32.8151 35.0593 32.5488 34.966 32.3143L33.6602 29.031L32.6387 29.8021Z" fill="#3E4860"/>
<path d="M30.2635 22.9731L29.1964 24.3357C28.8957 24.7197 28.7104 25.1814 28.6624 25.6669L28.27 29.6355C28.183 30.5148 27.3747 31.1402 26.5017 31.0036L24.6316 30.7109C23.7616 30.5747 23.1437 29.7909 23.2143 28.9132L23.5082 25.2613L11.8728 23.9598L21.4378 32.289L29.1631 32.4915L32.1771 26.1012L30.2635 22.9731Z" fill="#3E4860"/>
<path d="M17.9411 30.4458L13.9999 32.0538C13.7974 32.1364 13.6824 32.3516 13.7263 32.5659C13.77 32.779 13.9585 32.9313 14.1761 32.9292L20.7707 32.8648L17.9411 30.4458Z" fill="#3E4860"/>
<path d="M34.0893 26.0173L30.1095 32.737C30.0883 32.7723 30.0654 32.8067 30.0398 32.8393C29.8352 33.1083 29.5098 33.2644 29.1668 33.2511L19.3632 32.8772C19.148 32.8693 18.9417 32.7934 18.7732 32.6603L11.2704 26.7413C11.1152 26.6187 11.0341 26.4255 11.0543 26.2289L11.3224 23.6583L17.6665 25.9449C19.5581 26.6266 21.1128 28.0138 22.0052 29.8145L22.6314 31.0782C22.8792 31.5774 23.3801 31.901 23.9374 31.9204L27.919 32.0624C28.3537 32.0783 28.7559 31.8322 28.9384 31.4372L30.2673 28.5729C30.6219 27.8092 30.7144 26.9494 30.531 26.1275L29.2832 20.5321C29.2179 20.2385 29.3864 19.943 29.673 19.8504L30.7638 19.4977C31.024 19.4139 31.307 19.5215 31.4455 19.7561L34.092 24.2492C34.413 24.795 34.4121 25.4723 34.0893 26.0173Z" fill="#56C061"/>
<path d="M32.8908 26.2317L35.5375 27.3762C36.3196 27.7144 36.9887 28.2691 37.4662 28.9748C37.6718 29.2787 37.4646 29.6912 37.098 29.7054C34.8406 29.7927 32.5162 30.1884 30.1187 30.9215L32.8908 26.2317Z" fill="#56C061"/>
<path d="M23.0254 25.7564L23.5017 25.604C23.8633 25.4882 24.0148 25.0595 23.8062 24.7422C23.001 23.5182 21.949 23.017 20.4912 23.163L19.5205 23.1471C18.9687 23.2023 18.4206 23.0119 18.0219 22.6264C17.6486 22.2655 17.1429 22.0745 16.6242 22.0984L12.7985 22.2299C12.2927 22.2533 11.8414 22.5547 11.6259 23.0129L11.3225 23.6583L16.6385 25.5744L21.942 25.8925C22.3084 25.9144 22.6757 25.8683 23.0254 25.7564Z" fill="#3E4860"/>
<path d="M7.84755 24.5108C7.93649 24.5108 8.00859 24.4387 8.00859 24.3498C8.00859 24.2608 7.93649 24.1887 7.84755 24.1887C7.75862 24.1887 7.68652 24.2608 7.68652 24.3498C7.68652 24.4387 7.75862 24.5108 7.84755 24.5108Z" fill="#F7C958"/>
<path d="M8.95742 26.1214C9.04635 26.1214 9.11845 26.0493 9.11845 25.9603C9.11845 25.8714 9.04635 25.7993 8.95742 25.7993C8.86848 25.7993 8.79639 25.8714 8.79639 25.9603C8.79639 26.0493 8.86848 26.1214 8.95742 26.1214Z" fill="#F7C958"/>
<path d="M28.7073 19.0013H27.6951C27.5172 19.0013 27.373 18.8571 27.373 18.6792C27.373 18.5014 27.5172 18.3572 27.6951 18.3572H28.7073C28.8852 18.3572 29.0294 18.5014 29.0294 18.6792C29.0294 18.8571 28.8852 19.0013 28.7073 19.0013Z" fill="#56C061"/>
<path d="M29.4334 18.4892C29.3604 18.4892 29.3012 18.43 29.3012 18.357V17.4548C29.3012 17.0104 28.9396 16.6488 28.4953 16.6488H28.3852C28.3122 16.6488 28.2529 16.5896 28.2529 16.5166C28.2529 16.4435 28.3122 16.3843 28.3852 16.3843H28.4953C29.0855 16.3843 29.5657 16.8645 29.5657 17.4548V18.357C29.5657 18.43 29.5065 18.4892 29.4334 18.4892Z" fill="#E7E6E8"/>
<path d="M27.9712 17.3448C28.2507 17.3448 28.4773 16.974 28.4773 16.5167C28.4773 16.0593 28.2507 15.6885 27.9712 15.6885C27.6917 15.6885 27.4651 16.0593 27.4651 16.5167C27.4651 16.974 27.6917 17.3448 27.9712 17.3448Z" fill="#E7E6E8"/>
<path d="M32.3199 21.4001L32.0508 21.5295C31.9032 21.6005 31.8139 21.7543 31.8255 21.9176L31.8533 22.3126C31.8746 22.6146 32.0481 22.8851 32.3139 23.0303L33.7884 23.8363C33.8452 23.8673 33.9068 23.8037 33.8738 23.7479L32.5242 21.4621C32.4826 21.3915 32.3938 21.3646 32.3199 21.4001Z" fill="#E7E6E8"/>
<path d="M33.4261 27.1379L31.2507 30.599L32.494 30.2445L33.4261 27.1379Z" fill="#40A74D"/>
<path d="M30.04 32.8393C29.8354 33.1082 29.51 33.2643 29.1669 33.2511L19.3633 32.8772C19.1481 32.8692 18.9418 32.7934 18.7733 32.6602L11.2705 26.7412C11.9337 27.2642 17.0934 28.3003 18.4991 30.5993C19.9039 32.8983 21.6799 32.5183 25.7912 32.7537C27.1492 32.8313 28.6449 32.8498 30.04 32.8393Z" fill="#40A74D"/>
<path d="M23.4482 26.0076L21.9629 26.3189C21.865 26.3394 21.7641 26.3414 21.6654 26.3247L18.2883 25.7212C18.2587 25.7159 18.2639 25.672 18.2939 25.6738L21.8853 25.8904C21.978 25.8953 22.071 25.8887 22.1621 25.8705L23.5017 25.604L23.4482 26.0076Z" fill="#303A54"/>
<path d="M11.1143 19.003V23.9935H4.25879V20.2685C4.25879 20.2606 4.25879 20.2517 4.25968 20.2438C4.26057 20.1186 4.2729 19.9951 4.29496 19.8761C4.47927 18.8831 5.34965 18.1309 6.39642 18.1309H10.2413C10.7237 18.1309 11.1143 18.5215 11.1143 19.003Z" fill="#F07100"/>
<path d="M11.1144 19.876V20.2437H4.25977C4.26065 20.1185 4.27299 19.995 4.29505 19.876H11.1144Z" fill="#F4FFFA"/>
<path d="M20.2834 10.4405C20.2834 10.4405 20.4372 11.0998 21.2316 11.4161C22.0261 11.7324 21.9053 9.73193 21.9053 9.73193L20.2834 10.4405Z" fill="#4A4F54"/>
<path d="M26.6056 28.998H24.9683V30.6354H26.6056V28.998Z" fill="#F7C4A3"/>
<path d="M18.282 20.6412C18.282 20.4688 18.437 20.3377 18.607 20.3662C19.6859 20.5471 20.7649 20.728 21.8438 20.9089C22.6594 21.0457 23.4749 21.1824 24.2904 21.3192C24.9346 21.4272 25.8615 21.4236 26.3991 21.8037C27.631 22.675 27.1183 24.7026 27.0525 25.9673C26.9949 27.0765 26.9373 28.1856 26.8796 29.2947C26.8718 29.4429 26.7494 29.5591 26.6011 29.5591H25.0152C24.8627 29.5591 24.7385 29.4365 24.7364 29.284C24.7284 28.4171 24.7205 27.5502 24.7125 26.6832C24.7062 25.9925 24.699 25.302 24.7003 24.6112C24.7007 24.3934 24.5608 24.2726 24.363 24.2151C23.6722 24.0142 22.9424 23.9263 22.2315 23.8262C21.6983 23.7511 21.1635 23.6869 20.6277 23.6337C20.1226 23.5835 19.6391 23.5414 19.1594 23.3615C18.088 22.944 18.282 21.559 18.282 20.6412Z" fill="#343F58"/>
<path d="M20.6182 11.8992C21.0631 12.2657 21.508 12.6323 21.9529 12.9989C22.1831 13.1886 22.4709 13.3685 22.6709 13.5905C23.3046 14.294 23.1694 15.5257 23.2411 16.4015C23.3254 17.432 23.4097 18.4625 23.494 19.493C23.5023 19.5938 23.5938 21.1868 23.6328 21.1894C23.6296 21.1892 18.2321 20.8318 18.2321 20.8318C18.1335 20.8253 18.061 20.7369 18.0737 20.6389C18.249 19.2938 18.4036 17.9461 18.556 16.5982C18.6916 15.399 18.7295 14.112 19.3559 13.0431C19.6648 12.5163 20.1181 12.2148 20.6182 11.8992Z" fill="#56C061"/>
<path d="M21.12 10.4309L20.7378 11.807L22.4804 13.1527L22.5354 10.9788L21.12 10.4309Z" fill="#F7C4A3"/>
<path d="M24.7348 9.70216C24.7348 11.0362 23.9705 11.8211 23.2338 11.9624C21.7042 12.2557 20.4304 10.7774 20.4304 9.44335C20.4304 8.1093 21.5119 7.02783 22.8459 7.02783C24.18 7.02783 24.7348 8.36809 24.7348 9.70216Z" fill="#F7C4A3"/>
<path d="M20.7437 11.416L20.3699 12.0751L22.8876 14.0001C22.9342 14.0357 23.0017 14.0042 23.0043 13.9455L23.0382 13.1865C23.0483 12.9601 22.9342 12.7462 22.7405 12.6286L20.7437 11.416Z" fill="#40A74D"/>
<path d="M20.4912 15.0507L22.0902 17.9474C22.1827 18.249 22.4393 18.4712 22.7509 18.5199L26.7416 19.298C26.8842 19.3202 27.0292 19.3221 27.1729 19.3081C27.6201 19.2647 28.0378 19.3513 28.4191 19.5989C28.4654 19.629 28.5256 19.6271 28.5679 19.5916L28.7396 19.4474C28.7895 19.4055 28.7985 19.3326 28.7601 19.28C28.6135 19.0791 28.225 18.6233 27.6548 18.5199C26.9178 18.3862 23.3432 17.2822 23.3432 17.2822L21.7697 14.2725L20.4912 15.0507Z" fill="#F7C4A3"/>
<path d="M20.1569 14.9751L21.0032 16.8271C21.0434 16.9151 21.1515 16.9482 21.234 16.8978L22.9332 15.8619C22.9939 15.8249 23.0127 15.7454 22.975 15.6851L21.8598 13.8992C21.6709 13.603 21.3409 13.4271 20.9897 13.4353C20.5975 13.4445 20.2466 13.6812 20.0911 14.0413L20.0883 14.0478C19.9581 14.3495 19.9837 14.6958 20.1569 14.9751Z" fill="#40A74D"/>
<path d="M28.5139 31.0392C28.528 31.6336 26.0361 31.4907 25.1435 31.4202C25.0163 31.4096 24.9101 31.3302 24.8618 31.22C24.8425 31.1768 24.8319 31.1301 24.8328 31.0798L24.8381 30.4819C24.8381 30.4272 24.8635 30.3761 24.9066 30.3417C24.9373 30.3179 24.9741 30.3055 25.0119 30.3055C25.0321 30.3055 25.0514 30.3091 25.0707 30.3161C25.298 30.4025 25.944 30.586 26.6146 30.2112C26.6146 30.2112 28.2752 30.302 28.4903 30.914C28.5051 30.9537 28.513 30.9952 28.5139 31.0392Z" fill="#FFF5E8"/>
<path d="M28.4902 30.914C28.2336 31.3726 25.8517 31.2879 24.8446 31.22C24.8252 31.1768 24.8146 31.1301 24.8155 31.0798L24.8208 30.4819C24.8208 30.4272 24.8463 30.3761 24.8895 30.3417C24.9204 30.3179 24.9574 30.3055 24.9954 30.3055C25.0157 30.3055 25.0351 30.3091 25.0545 30.3161C25.2829 30.4025 25.9319 30.586 26.6057 30.2112C26.6057 30.2112 28.2741 30.302 28.4902 30.914Z" fill="#343F58"/>
<path d="M27.4639 30.3325C27.4639 30.3325 27.1619 30.7036 27.2711 31.2739C27.2711 31.2739 28.1291 31.3726 28.5082 30.9816C28.5082 30.9816 28.5194 30.4483 27.4639 30.3325Z" fill="#FFF5E8"/>
<path d="M21.2685 10.476C21.3452 10.1514 21.1442 9.82614 20.8196 9.7495C20.495 9.67285 20.1698 9.87385 20.0931 10.1984C20.0165 10.523 20.2175 10.8483 20.542 10.9249C20.8666 11.0015 21.1919 10.8006 21.2685 10.476Z" fill="#F7C4A3"/>
<path d="M20.3698 8.19043C20.3698 8.19043 19.9614 9.25557 20.2092 9.95847C20.2092 9.95847 20.594 9.78915 20.6803 9.95847C20.7665 10.1278 20.8294 10.5044 21.12 10.4311C21.4107 10.3578 21.2957 9.1123 21.4797 8.9414C21.6637 8.7705 20.3698 8.19043 20.3698 8.19043Z" fill="#4A4F54"/>
<path d="M22.7717 8.8637C22.7717 8.8637 23.805 10.0301 25.3654 9.3787C25.4284 9.35237 25.4243 9.26033 25.3582 9.24304C25.1994 9.2015 24.9963 9.10168 24.8679 8.86371C24.6315 8.42543 23.3663 8.19537 23.0212 8.3334C22.6761 8.47143 22.7717 8.8637 22.7717 8.8637Z" fill="#4A4F54"/>
<path d="M21.3588 9.17877L20.2442 8.88629C20.0715 8.85917 20.0652 8.77226 20.0765 8.59786C20.1154 7.99686 20.1285 6.34913 21.8536 6.12482C23.3161 5.93469 23.9739 6.09032 24.4213 6.67694C24.8687 7.26356 24.9421 8.57118 24.9421 8.57118C23.539 7.98097 22.3731 8.29193 21.3588 9.17877Z" fill="#40A74D"/>
<path d="M25.1488 9.15589C24.9424 9.17882 24.7272 8.81286 24.6161 8.73437C24.3313 8.5333 24.0138 8.50331 23.6937 8.55534C23.6884 8.55623 23.6822 8.5571 23.6769 8.55799C23.2969 8.62324 22.915 8.80226 22.5834 8.94512C22.4238 9.01478 22.2642 9.08357 22.1046 9.14706C21.9159 9.22112 21.7078 9.29521 21.5129 9.23877C21.4908 9.2326 21.4705 9.22555 21.452 9.2176C21.1857 9.10385 21.176 8.80324 21.3417 8.60923C22.0922 7.73355 23.8339 7.58705 24.7563 8.30399C24.8004 8.33838 24.9336 8.4636 25.057 8.60735C25.0579 8.60824 25.0588 8.60911 25.0588 8.61C25.0888 8.64615 25.1196 8.68408 25.147 8.72199C25.1479 8.72288 25.1487 8.72288 25.1487 8.72375C25.1496 8.72464 25.1505 8.7264 25.1514 8.72727C25.2219 8.8234 25.2775 8.91952 25.2907 8.99624V8.99713C25.3057 9.08182 25.2696 9.14267 25.1488 9.15589Z" fill="#56C061"/>
<path d="M25.1487 9.15587C24.9423 9.1788 24.7271 8.81284 24.616 8.73434C24.3312 8.53328 24.0137 8.50329 23.6936 8.55532C23.6883 8.55621 23.6821 8.55708 23.6768 8.55797C23.2968 8.62322 22.9149 8.80224 22.5833 8.9451C22.4237 9.01476 22.2641 9.08354 22.1045 9.14703C21.9158 9.2211 21.7076 9.29518 21.5128 9.23875C21.4907 9.23258 21.4704 9.22553 21.4519 9.21758C21.6512 9.25814 22.1124 8.82339 22.9175 8.5606C23.6698 8.31632 24.5913 8.1082 25.0569 8.60734C25.0578 8.60823 25.0587 8.6091 25.0587 8.60999C25.0904 8.6435 25.1204 8.68143 25.1469 8.72199C25.1478 8.72288 25.1486 8.72288 25.1486 8.72375C25.1495 8.72464 25.1504 8.7264 25.1513 8.72727C25.2059 8.81104 25.2527 8.90187 25.2906 8.99623V8.99712C25.3056 9.0818 25.2695 9.14264 25.1487 9.15587Z" fill="#7FCF88"/>
<path d="M25.1487 9.15601C24.9423 9.17894 24.7271 8.81297 24.616 8.73448C24.3312 8.53342 24.0137 8.50343 23.6936 8.55546C24.3532 8.43731 24.9317 8.46728 25.1487 9.15601Z" fill="#56C061"/>
<path d="M22.5104 11.9725C22.5104 11.9725 21.8835 11.9311 21.5796 11.5815C21.5796 11.5815 21.6852 11.8718 22.5027 12.2765L22.5104 11.9725Z" fill="#F4B185"/>
</svg>
