<svg width="82" height="18" viewBox="0 0 82 18" fill="none" xmlns="http://www.w3.org/2000/svg">
<path d="M5.45268 13.8148H12.7007V17.1748H0.79668V14.0548L7.99668 3.6868H0.79668V0.326804H12.7007V3.4468L5.45268 13.8148ZM19.4856 3.6148V7.0228H24.9816V10.1908H19.4856V13.8868H25.7016V17.1748H15.3816V0.326804H25.7016V3.6148H19.4856ZM32.4699 3.6148V7.0228H37.9659V10.1908H32.4699V13.8868H38.6859V17.1748H28.3659V0.326804H38.6859V3.6148H32.4699ZM56.4223 17.1748H52.3183L45.4543 6.7828V17.1748H41.3503V0.326804H45.4543L52.3183 10.7668V0.326804H56.4223V17.1748ZM70.5812 5.6548C70.2772 5.0948 69.8372 4.6708 69.2612 4.3828C68.7012 4.0788 68.0372 3.9268 67.2692 3.9268C65.9412 3.9268 64.8772 4.3668 64.0772 5.2468C63.2772 6.1108 62.8772 7.2708 62.8772 8.7268C62.8772 10.2788 63.2932 11.4948 64.1252 12.3748C64.9732 13.2388 66.1332 13.6708 67.6052 13.6708C68.6132 13.6708 69.4612 13.4148 70.1492 12.9028C70.8532 12.3908 71.3652 11.6548 71.6852 10.6948H66.4772V7.6708H75.4052V11.4868C75.1012 12.5108 74.5812 13.4628 73.8452 14.3428C73.1252 15.2228 72.2052 15.9348 71.0852 16.4788C69.9652 17.0228 68.7012 17.2948 67.2932 17.2948C65.6292 17.2948 64.1412 16.9348 62.8292 16.2148C61.5332 15.4788 60.5172 14.4628 59.7812 13.1668C59.0612 11.8708 58.7012 10.3908 58.7012 8.7268C58.7012 7.0628 59.0612 5.5828 59.7812 4.2868C60.5172 2.9748 61.5332 1.9588 62.8292 1.2388C64.1252 0.502804 65.6052 0.134804 67.2692 0.134804C69.2852 0.134804 70.9812 0.622804 72.3572 1.5988C73.7492 2.5748 74.6692 3.9268 75.1172 5.6548H70.5812ZM81.7824 0.326804V17.1748H77.6784V0.326804H81.7824Z" fill="white"/>
</svg>
