<svg width="14" height="15" viewBox="0 0 14 15" fill="none" xmlns="http://www.w3.org/2000/svg">
<rect y="0.5" width="14" height="14" rx="7" fill="#07772F"/>
<path d="M11.1935 7.10679C11.3661 6.9386 11.427 6.69176 11.3526 6.46229C11.278 6.23283 11.0836 6.06903 10.8449 6.03427L8.72197 5.72581C8.63155 5.71264 8.55343 5.65593 8.51305 5.57394L7.56395 3.65047C7.45738 3.43435 7.24109 3.30005 7.00004 3.30005C6.75917 3.30005 6.54288 3.43435 6.43631 3.65047L5.48704 5.57412C5.44666 5.65611 5.36836 5.71281 5.27794 5.72598L3.15503 6.03445C2.91644 6.06903 2.72192 6.23301 2.6473 6.46247C2.57286 6.69193 2.63378 6.93877 2.80636 7.10696L4.34237 8.60417C4.40785 8.66807 4.43787 8.76007 4.42242 8.84995L4.06006 10.9641C4.02793 11.1502 4.07674 11.3312 4.19718 11.4739C4.38433 11.6964 4.71105 11.7641 4.97229 11.6268L6.87083 10.6286C6.95018 10.587 7.05008 10.5873 7.12926 10.6286L9.02797 11.6268C9.12032 11.6755 9.21881 11.7 9.32046 11.7C9.50603 11.7 9.68195 11.6175 9.80291 11.4739C9.92352 11.3312 9.97215 11.1498 9.94002 10.9641L9.57749 8.84995C9.56204 8.75989 9.59206 8.66807 9.65754 8.60417L11.1935 7.10679Z" fill="white"/>
</svg>
