<svg width="12" height="13" viewBox="0 0 12 13" fill="none" xmlns="http://www.w3.org/2000/svg">
<path fill-rule="evenodd" clip-rule="evenodd" d="M8.14286 2.21436C7.1112 2.21436 6.24362 2.95382 6.04353 3.92864H0.428571C0.19188 3.92864 0 4.12052 0 4.35721C0 4.5939 0.19188 4.78578 0.428571 4.78578H6.04353C6.24362 5.76061 7.1112 6.50007 8.14286 6.50007C9.17451 6.50007 10.0421 5.76061 10.2422 4.78578H11.5714C11.8081 4.78578 12 4.5939 12 4.35721C12 4.12052 11.8081 3.92864 11.5714 3.92864H10.2422C10.0421 2.95382 9.17451 2.21436 8.14286 2.21436ZM8.14286 3.0715C8.858 3.0715 9.42857 3.64207 9.42857 4.35721C9.42857 5.07236 8.858 5.64293 8.14286 5.64293C7.42771 5.64293 6.85714 5.07236 6.85714 4.35721C6.85714 3.64207 7.42771 3.0715 8.14286 3.0715Z" fill="#313131"/>
<path fill-rule="evenodd" clip-rule="evenodd" d="M3.85714 6.5C2.82549 6.5 1.95791 7.23946 1.75781 8.21429H0.428571C0.19188 8.21429 0 8.40617 0 8.64286C0 8.87955 0.19188 9.07143 0.428571 9.07143H1.75781C1.95791 10.0463 2.82549 10.7857 3.85714 10.7857C4.8888 10.7857 5.75638 10.0463 5.95647 9.07143H11.5714C11.8081 9.07143 12 8.87955 12 8.64286C12 8.40617 11.8081 8.21429 11.5714 8.21429H5.95647C5.75638 7.23946 4.8888 6.5 3.85714 6.5ZM3.85714 7.35714C4.57229 7.35714 5.14286 7.92771 5.14286 8.64286C5.14286 9.358 4.57229 9.92857 3.85714 9.92857C3.142 9.92857 2.57143 9.358 2.57143 8.64286C2.57143 7.92771 3.142 7.35714 3.85714 7.35714Z" fill="#313131"/>
</svg>
