<svg width="21" height="20" viewBox="0 0 21 20" fill="none" xmlns="http://www.w3.org/2000/svg">
<path d="M10.3575 9.63408C11.681 9.63408 12.827 9.15938 13.7635 8.22279C14.6998 7.28636 15.1747 6.14058 15.1747 4.81689C15.1747 3.49365 14.7 2.34771 13.7634 1.41098C12.8268 0.4747 11.6809 0 10.3575 0C9.03378 0 7.888 0.4747 6.95157 1.41113C6.01514 2.34756 5.54028 3.49349 5.54028 4.81689C5.54028 6.14058 6.01514 7.28652 6.95157 8.22295C7.8883 9.15922 9.03423 9.63408 10.3575 9.63408ZM7.78042 2.23983C8.49896 1.5213 9.34185 1.17203 10.3575 1.17203C11.3729 1.17203 12.216 1.5213 12.9347 2.23983C13.6532 2.95852 14.0026 3.80157 14.0026 4.81689C14.0026 5.83251 13.6532 6.6754 12.9347 7.39409C12.216 8.11278 11.3729 8.46205 10.3575 8.46205C9.34216 8.46205 8.49926 8.11263 7.78042 7.39409C7.06173 6.67555 6.71231 5.83251 6.71231 4.81689C6.71231 3.80157 7.06173 2.95852 7.78042 2.23983Z" fill="#919191"/>
<path d="M18.7863 15.3791C18.7592 14.9894 18.7046 14.5643 18.6242 14.1154C18.543 13.6631 18.4385 13.2356 18.3134 12.8448C18.184 12.4409 18.0084 12.042 17.7909 11.6598C17.5656 11.2631 17.3007 10.9176 17.0034 10.6333C16.6926 10.3359 16.312 10.0968 15.872 9.92242C15.4334 9.74893 14.9475 9.66104 14.4276 9.66104C14.2234 9.66104 14.026 9.74481 13.6447 9.99307C13.41 10.1461 13.1355 10.3231 12.8291 10.5189C12.5671 10.6858 12.2122 10.8422 11.7738 10.9838C11.3461 11.1222 10.9118 11.1924 10.483 11.1924C10.0546 11.1924 9.62032 11.1222 9.19231 10.9838C8.75438 10.8424 8.39931 10.686 8.13778 10.519C7.83428 10.3251 7.55962 10.1481 7.32143 9.99292C6.94042 9.74466 6.74297 9.66089 6.53881 9.66089C6.01879 9.66089 5.53295 9.74893 5.09457 9.92258C4.65481 10.0967 4.2741 10.3358 3.96298 10.6335C3.66574 10.9179 3.40085 11.2632 3.17563 11.6598C2.95849 12.042 2.78271 12.4407 2.65332 12.8449C2.52835 13.2357 2.42383 13.6631 2.34265 14.1154C2.26208 14.5637 2.20761 14.9889 2.1806 15.3796C2.15405 15.7615 2.14062 16.159 2.14062 16.5606C2.14062 17.6046 2.4725 18.4498 3.12695 19.0731C3.77331 19.6882 4.62841 20.0001 5.6686 20.0001H15.2987C16.3386 20.0001 17.1937 19.6882 17.8402 19.0731C18.4948 18.4502 18.8267 17.6048 18.8267 16.5604C18.8265 16.1575 18.813 15.76 18.7863 15.3791ZM17.0321 18.224C16.605 18.6304 16.038 18.828 15.2986 18.828H5.6686C4.92901 18.828 4.362 18.6304 3.93506 18.2241C3.5162 17.8254 3.31265 17.2811 3.31265 16.5606C3.31265 16.1858 3.32501 15.8158 3.34973 15.4606C3.37384 15.1121 3.42312 14.7292 3.49621 14.3224C3.56839 13.9207 3.66024 13.5436 3.7695 13.2023C3.87433 12.875 4.0173 12.5509 4.19461 12.2387C4.36383 11.9412 4.55853 11.6859 4.77337 11.4802C4.97433 11.2878 5.22762 11.1303 5.52609 11.0122C5.80212 10.903 6.11233 10.8431 6.44909 10.8341C6.49013 10.856 6.56322 10.8976 6.68163 10.9748C6.92257 11.1318 7.20028 11.311 7.50728 11.507C7.85335 11.7277 8.29921 11.927 8.8319 12.0989C9.37648 12.275 9.9319 12.3644 10.4832 12.3644C11.0345 12.3644 11.5901 12.275 12.1343 12.0991C12.6675 11.9268 13.1132 11.7277 13.4597 11.5067C13.7739 11.3059 14.0438 11.132 14.2848 10.9748C14.4032 10.8978 14.4763 10.856 14.5173 10.8341C14.8542 10.8431 15.1644 10.903 15.4406 11.0122C15.7389 11.1303 15.9922 11.2879 16.1932 11.4802C16.408 11.6857 16.6027 11.941 16.7719 12.2389C16.9494 12.5509 17.0925 12.8751 17.1972 13.2021C17.3066 13.5439 17.3986 13.9208 17.4706 14.3223C17.5436 14.7298 17.593 15.1128 17.6171 15.4607V15.461C17.642 15.8149 17.6545 16.1848 17.6547 16.5606C17.6545 17.2813 17.451 17.8254 17.0321 18.224Z" fill="#919191"/>
</svg>
