<svg xmlns="http://www.w3.org/2000/svg" width="21" height="20" viewBox="0 0 21 20" fill="none">
<g clip-path="url(#clip0_7_1217)">
<path d="M20.3758 5.24612C20.2647 5.1039 20.0944 5.02077 19.914 5.02077H5.30911C5.18637 4.52984 4.9788 3.69946 4.77364 2.87923C4.3499 1.18401 2.83351 0 1.08602 0C0.762433 0 0.500092 0.262341 0.500092 0.585932C0.500092 0.909522 0.762433 1.17186 1.08602 1.17186C2.29476 1.17186 3.34366 1.9908 3.63678 3.16348L5.74988 11.6163C5.9107 12.2595 6.28671 12.8017 6.78944 13.1752C5.7843 14.1305 6.0093 15.8793 7.20307 16.5587C6.14511 17.9425 7.17471 20.0161 8.93106 19.9998C10.5196 20.0212 11.5922 18.2568 10.8476 16.8618H13.918C13.1737 18.257 14.2459 20.0212 15.8346 19.9998C18.6893 19.8916 18.6888 15.7979 15.8346 15.6899H8.30341C7.00073 15.6404 7.00171 13.7729 8.30341 13.7238H16.3163C17.5954 13.7238 18.7055 12.8571 19.0157 11.6162L20.4824 5.74877C20.5261 5.57377 20.4868 5.38831 20.3758 5.24612ZM15.8346 16.8618C16.3767 16.8618 16.8177 17.3028 16.8177 17.8449C16.7683 19.1473 14.9008 19.1469 14.8515 17.8449C14.8515 17.3028 15.2925 16.8618 15.8346 16.8618ZM8.93102 16.8618C9.47309 16.8618 9.9141 17.3028 9.9141 17.8449C9.86469 19.1473 7.99721 19.1469 7.94795 17.8449C7.94795 17.3028 8.38896 16.8618 8.93102 16.8618ZM17.8788 11.332C17.6993 12.0503 17.0567 12.552 16.3163 12.552H8.44931C7.70885 12.552 7.06632 12.0503 6.88675 11.3321L5.60203 6.19267H19.1635L17.8788 11.332Z" fill="#aa5000"/>
</g>
<defs fill="#000000">
<clipPath id="clip0_7_1217" fill="#000000">
<rect width="20" height="20" fill="white" transform="translate(0.5)"/>
</clipPath>
</defs>
</svg>