<svg width="23" height="20" viewBox="0 0 23 20" fill="none" xmlns="http://www.w3.org/2000/svg">
<path d="M22.7273 7.76364C22.4909 7.58182 22.1455 7.61818 21.9637 7.85455L21.3818 8.58182C20.6909 3.72727 16.5273 0 11.5091 0C8.83638 0 6.32729 1.03636 4.45456 2.94545C4.23638 3.16364 4.23638 3.50909 4.45456 3.70909C4.67274 3.92727 5.0182 3.92727 5.2182 3.70909C6.89092 2.01818 9.12729 1.09091 11.5091 1.09091C16 1.09091 19.7273 4.45455 20.3091 8.8L19.4546 8.12727C19.2182 7.94546 18.8727 7.98182 18.6909 8.21818C18.5091 8.45455 18.5455 8.8 18.7818 8.98182L20.6 10.4364C20.6182 10.4545 20.6364 10.4727 20.6546 10.4727C20.6546 10.4727 20.6727 10.4727 20.6727 10.4909C20.6909 10.5091 20.7273 10.5091 20.7455 10.5273C20.7637 10.5455 20.8 10.5455 20.8364 10.5455H20.9273H20.9455C20.9818 10.5455 21.0182 10.5455 21.0546 10.5273C21.0727 10.5273 21.0727 10.5273 21.0909 10.5091C21.1091 10.5091 21.1455 10.4909 21.1637 10.4909C21.1818 10.4909 21.1818 10.4727 21.2 10.4727C21.2182 10.4545 21.2546 10.4545 21.2727 10.4364C21.3091 10.4182 21.3273 10.3818 21.3637 10.3455L22.8182 8.52727C23 8.29091 22.9637 7.94546 22.7273 7.76364Z" fill="#919191"/>
<path d="M12.5091 10.5455H13.9091C14.2182 10.5455 14.4546 10.291 14.4546 10.0001C14.4546 9.69098 14.2 9.45462 13.9091 9.45462H12.5273C12.4182 9.25462 12.2727 9.10917 12.0727 9.00008L12.0546 6.41826C12.0546 6.10917 11.8182 5.8728 11.5091 5.8728C11.2 5.8728 10.9637 6.12735 10.9637 6.41826L10.9818 8.98189C10.6182 9.18189 10.3818 9.54553 10.3818 9.98189C10.3818 10.6183 10.8909 11.1273 11.5273 11.1273C11.9455 11.1455 12.3091 10.9092 12.5091 10.5455Z" fill="#919191"/>
<path d="M17.4364 9.99991C17.4364 6.74537 14.7818 4.09082 11.5091 4.09082C8.23636 4.09082 5.58182 6.74537 5.58182 9.99991C5.58182 13.2545 8.25454 15.909 11.5091 15.909C14.7636 15.909 17.4364 13.2545 17.4364 9.99991ZM6.67273 9.99991C6.67273 7.34537 8.83636 5.18173 11.5091 5.18173C14.1818 5.18173 16.3455 7.34537 16.3455 9.99991C16.3455 12.6545 14.1636 14.8181 11.5091 14.8181C8.85454 14.8181 6.67273 12.6545 6.67273 9.99991Z" fill="#919191"/>
<path d="M11.5091 19.9999C14.1818 19.9999 16.6909 18.9636 18.5636 17.0545C18.7818 16.8363 18.7818 16.4908 18.5636 16.2908C18.3455 16.0727 18 16.0727 17.8 16.2908C16.1273 17.9817 13.8909 18.909 11.5091 18.909C7.01818 18.909 3.29091 15.5454 2.70909 11.1999L3.56364 11.8727C3.67273 11.9454 3.78182 11.9999 3.90909 11.9999C4.07273 11.9999 4.23637 11.9272 4.32728 11.7999C4.50909 11.5636 4.47273 11.2181 4.23637 11.0363L2.41818 9.58175C2.4 9.56357 2.36364 9.54538 2.32728 9.5272C2.32728 9.5272 2.30909 9.5272 2.30909 9.50902C2.29091 9.50902 2.27273 9.49084 2.25455 9.49084H2.23637C2.21818 9.49084 2.21818 9.49084 2.2 9.49084C2.18182 9.49084 2.16364 9.47266 2.12728 9.47266C2.10909 9.47266 2.10909 9.47266 2.09091 9.47266C2.07273 9.47266 2.03637 9.47266 2.01818 9.47266H2C1.96364 9.47266 1.92728 9.49084 1.90909 9.49084H1.89091C1.87273 9.49084 1.83637 9.50902 1.81818 9.5272C1.8 9.5272 1.8 9.54538 1.78182 9.54538C1.76364 9.56357 1.74546 9.56357 1.72728 9.58175L1.70909 9.59993C1.69091 9.61811 1.65455 9.63629 1.63637 9.67266L0.181821 11.4908C2.40654e-06 11.7272 0.036366 12.0727 0.27273 12.2545C0.509093 12.4363 0.854548 12.3999 1.03637 12.1636L1.61818 11.4363C2.32728 16.2727 6.49091 19.9999 11.5091 19.9999Z" fill="#919191"/>
</svg>
