<svg xmlns="http://www.w3.org/2000/svg" width="21" height="20" viewBox="0 0 21 20" fill="none">
<g clip-path="url(#clip0_128_131)">
<path d="M19.6667 10.8161H1.33333C0.873332 10.8161 0.5 10.4427 0.5 9.98275C0.5 9.52275 0.873332 9.14941 1.33333 9.14941H19.6667C20.1267 9.14941 20.5 9.52275 20.5 9.98275C20.5 10.4427 20.1267 10.8161 19.6667 10.8161Z" fill="#aa5000"/>
<path d="M19.6667 4.42741H1.33333C0.873332 4.42741 0.5 4.05408 0.5 3.59408C0.5 3.13407 0.873332 2.76074 1.33333 2.76074H19.6667C20.1267 2.76074 20.5 3.13407 20.5 3.59408C20.5 4.05408 20.1267 4.42741 19.6667 4.42741Z" fill="#aa5000"/>
<path d="M19.6667 17.2048H1.33333C0.873332 17.2048 0.5 16.8314 0.5 16.3714C0.5 15.9114 0.873332 15.5381 1.33333 15.5381H19.6667C20.1267 15.5381 20.5 15.9114 20.5 16.3714C20.5 16.8314 20.1267 17.2048 19.6667 17.2048Z" fill="#aa5000"/>
</g>
<defs fill="#000000">
<clipPath id="clip0_128_131" fill="#000000">
<rect width="20" height="20" fill="white" transform="translate(0.5)"/>
</clipPath>
</defs>
</svg>