<svg width="21" height="20" viewBox="0 0 21 20" fill="none" xmlns="http://www.w3.org/2000/svg">
<g clip-path="url(#clip0_7_1196)">
<path d="M20 8.65999C19.9994 8.65953 19.9989 8.65892 19.9985 8.65846L11.84 0.500337C11.4923 0.152436 11.0299 -0.0390625 10.5381 -0.0390625C10.0463 -0.0390625 9.58401 0.152436 9.23611 0.500337L1.08195 8.65434C1.0792 8.65709 1.0763 8.65999 1.07371 8.66274C0.359594 9.38097 0.360814 10.5463 1.07722 11.2627C1.40452 11.5901 1.83665 11.7797 2.29884 11.7996C2.31776 11.8015 2.33668 11.8024 2.35575 11.8024H2.68076V17.8061C2.68076 18.9943 3.64756 19.961 4.83577 19.961H8.02761C8.35125 19.961 8.61355 19.6985 8.61355 19.375V14.668C8.61355 14.1259 9.05468 13.6849 9.59682 13.6849H11.4795C12.0216 13.6849 12.4626 14.1259 12.4626 14.668V19.375C12.4626 19.6985 12.7249 19.961 13.0485 19.961H16.2404C17.4287 19.961 18.3954 18.9943 18.3954 17.8061V11.8024H18.6969C19.1885 11.8024 19.6509 11.6109 19.9989 11.2628C20.7161 10.5454 20.7164 9.37792 20 8.65999ZM19.1702 10.4343C19.0437 10.5608 18.8756 10.6305 18.6969 10.6305H17.8094C17.4858 10.6305 17.2235 10.8928 17.2235 11.2165V17.8061C17.2235 18.3481 16.7825 18.7891 16.2404 18.7891H13.6345V14.668C13.6345 13.4798 12.6678 12.513 11.4795 12.513H9.59682C8.40847 12.513 7.44167 13.4798 7.44167 14.668V18.7891H4.83577C4.29377 18.7891 3.85264 18.3481 3.85264 17.8061V11.2165C3.85264 10.8928 3.59034 10.6305 3.2667 10.6305H2.39451C2.38535 10.6299 2.37635 10.6294 2.36704 10.6293C2.19248 10.6262 2.02876 10.557 1.90607 10.4341C1.64515 10.1732 1.64515 9.74856 1.90607 9.48748C1.90623 9.48748 1.90623 9.48732 1.90638 9.48717L1.90684 9.48671L10.065 1.32889C10.1913 1.2024 10.3593 1.13281 10.5381 1.13281C10.7168 1.13281 10.8848 1.2024 11.0113 1.32889L19.1676 9.48503C19.1688 9.48626 19.1702 9.48748 19.1714 9.4887C19.431 9.75008 19.4305 10.1738 19.1702 10.4343Z" fill="#00773F"/>
</g>
<defs>
<clipPath id="clip0_7_1196">
<rect width="20" height="20" fill="white" transform="translate(0.5)"/>
</clipPath>
</defs>
</svg>
