<svg width="23" height="20" viewBox="0 0 23 20" fill="none" xmlns="http://www.w3.org/2000/svg">
<path d="M22.6604 7.76364C22.4241 7.58182 22.0786 7.61818 21.8968 7.85455L21.315 8.58182C20.6241 3.72727 16.4604 0 11.4423 0C8.76953 0 6.26044 1.03636 4.38771 2.94545C4.16953 3.16364 4.16953 3.50909 4.38771 3.70909C4.60589 3.92727 4.95135 3.92727 5.15135 3.70909C6.82408 2.01818 9.06044 1.09091 11.4423 1.09091C15.9332 1.09091 19.6604 4.45455 20.2423 8.8L19.3877 8.12727C19.1513 7.94546 18.8059 7.98182 18.6241 8.21818C18.4423 8.45455 18.4786 8.8 18.715 8.98182L20.5332 10.4364C20.5513 10.4545 20.5695 10.4727 20.5877 10.4727C20.5877 10.4727 20.6059 10.4727 20.6059 10.4909C20.6241 10.5091 20.6604 10.5091 20.6786 10.5273C20.6968 10.5455 20.7332 10.5455 20.7695 10.5455H20.8604H20.8786C20.915 10.5455 20.9513 10.5455 20.9877 10.5273C21.0059 10.5273 21.0059 10.5273 21.0241 10.5091C21.0423 10.5091 21.0786 10.4909 21.0968 10.4909C21.115 10.4909 21.115 10.4727 21.1332 10.4727C21.1513 10.4545 21.1877 10.4545 21.2059 10.4364C21.2423 10.4182 21.2604 10.3818 21.2968 10.3455L22.7513 8.52727C22.9332 8.29091 22.8968 7.94546 22.6604 7.76364Z" fill="#00773F"/>
<path d="M12.4423 10.5455H13.8423C14.1514 10.5455 14.3877 10.2909 14.3877 10C14.3877 9.69092 14.1332 9.45456 13.8423 9.45456H12.4604C12.3514 9.25456 12.2059 9.10911 12.0059 9.00001L11.9877 6.4182C11.9877 6.10911 11.7514 5.87274 11.4423 5.87274C11.1332 5.87274 10.8968 6.12729 10.8968 6.4182L10.915 8.98183C10.5514 9.18183 10.315 9.54547 10.315 9.98183C10.315 10.6182 10.8241 11.1273 11.4604 11.1273C11.8786 11.1455 12.2423 10.9091 12.4423 10.5455Z" fill="#00773F"/>
<path d="M17.3695 9.99997C17.3695 6.74543 14.715 4.09088 11.4423 4.09088C8.16953 4.09088 5.51498 6.74543 5.51498 9.99997C5.51498 13.2545 8.18771 15.9091 11.4423 15.9091C14.6968 15.9091 17.3695 13.2545 17.3695 9.99997ZM6.60589 9.99997C6.60589 7.34543 8.76953 5.18179 11.4423 5.18179C14.115 5.18179 16.2786 7.34543 16.2786 9.99997C16.2786 12.6545 14.0968 14.8182 11.4423 14.8182C8.78771 14.8182 6.60589 12.6545 6.60589 9.99997Z" fill="#00773F"/>
<path d="M11.4423 20C14.115 20 16.6241 18.9636 18.4968 17.0545C18.715 16.8364 18.715 16.4909 18.4968 16.2909C18.2786 16.0727 17.9332 16.0727 17.7332 16.2909C16.0604 17.9818 13.8241 18.9091 11.4423 18.9091C6.95135 18.9091 3.22408 15.5454 2.64226 11.2L3.49681 11.8727C3.6059 11.9454 3.71499 12 3.84226 12C4.0059 12 4.16953 11.9273 4.26044 11.8C4.44226 11.5636 4.4059 11.2182 4.16953 11.0364L2.35135 9.58181C2.33317 9.56363 2.29681 9.54545 2.26044 9.52726C2.26044 9.52726 2.24226 9.52726 2.24226 9.50908C2.22408 9.50908 2.2059 9.4909 2.18771 9.4909H2.16953C2.15135 9.4909 2.15135 9.4909 2.13317 9.4909C2.11499 9.4909 2.09681 9.47272 2.06044 9.47272C2.04226 9.47272 2.04226 9.47272 2.02408 9.47272C2.0059 9.47272 1.96953 9.47272 1.95135 9.47272H1.93317C1.89681 9.47272 1.86044 9.4909 1.84226 9.4909H1.82408C1.8059 9.4909 1.76953 9.50908 1.75135 9.52726C1.73317 9.52726 1.73317 9.54544 1.71499 9.54544C1.69681 9.56363 1.67862 9.56363 1.66044 9.58181L1.64226 9.59999C1.62408 9.61817 1.58771 9.63635 1.56953 9.67272L0.114987 11.4909C-0.0668311 11.7273 -0.0304674 12.0727 0.205896 12.2545C0.44226 12.4364 0.787714 12.4 0.969533 12.1636L1.55135 11.4364C2.26044 16.2727 6.42408 20 11.4423 20Z" fill="#00773F"/>
</svg>
