<svg width="468" height="468" viewBox="0 0 468 468" fill="none" xmlns="http://www.w3.org/2000/svg">
<g clip-path="url(#clip0_3726_2711)">
<path d="M359.145 414.433C360.274 439.53 381.045 459.6 406.416 459.6C432.422 459.6 453.596 438.51 453.735 412.535H366.365C364.041 413.233 361.625 413.868 359.145 414.433Z" fill="#127F39"/>
<path d="M389.422 402.312H468C465.907 377.196 448.544 355.442 424.566 347.835C420.219 372.226 408.441 390.461 389.422 402.312Z" fill="#127F39"/>
<path d="M105.759 459.599C130.082 459.599 150.198 441.123 152.794 417.469H58.7241C61.3201 441.123 81.4371 459.599 105.759 459.599Z" fill="#127F39"/>
<path d="M105.759 344.919C71.3529 344.919 43.3499 372.862 43.2539 407.247H168.263C168.168 372.862 140.165 344.919 105.759 344.919Z" fill="#127F39"/>
<path d="M409.797 362.707C435.756 298.32 374.812 191.319 374.194 190.205L345.77 191.443C351.163 223.698 354.057 248.524 354.351 273.138C355.058 340.462 309.903 375.648 236.26 366.195C189.092 359.401 169.71 331.649 160.511 300.716H25.4898C17.0348 300.716 10.1558 307.595 10.1558 316.05V391.911C10.1558 400.366 17.0348 407.245 25.4898 407.245H33.0368C33.1338 367.224 65.7168 334.694 105.76 334.694C145.803 334.694 178.386 367.224 178.483 407.245H331.675C363.785 407.848 398.909 392.662 409.797 362.707Z" fill="#127F39"/>
<path d="M177.582 284.962V263.41C177.582 260.592 175.289 258.298 172.471 258.298H5.112C2.294 258.298 0 260.591 0 263.41V284.962C0 287.78 2.293 290.074 5.112 290.074H172.47C175.289 290.074 177.582 287.78 177.582 284.962Z" fill="#127F39"/>
<path d="M324.803 168.532C331.585 165.721 334.804 157.944 331.993 151.162C329.182 144.38 321.405 141.161 314.623 143.972C307.841 146.784 304.622 154.56 307.433 161.342C310.244 168.125 318.021 171.344 324.803 168.532Z" fill="#127F39"/>
<path d="M25.7352 174.409L75.4682 197.6C75.7282 195.236 76.0592 192.817 76.4612 190.361C77.3302 185.045 78.9902 179.856 81.3962 174.94L121.473 93.0684C125.16 85.5354 130.395 79.0234 136.847 73.8794C136.847 73.8794 79.8222 47.8314 77.6142 47.8314C71.7722 47.7904 66.1242 51.3454 63.7072 56.6934L18.3172 154.032C14.6792 161.429 18.1932 171.08 25.7352 174.409Z" fill="#127F39"/>
<path d="M90.5772 179.435C87.5672 185.352 86.3372 191.939 85.6732 198.39C112.844 197.725 124.508 181.046 124.637 180.856C126.221 178.519 129.399 177.908 131.736 179.491C134.073 181.074 134.685 184.253 133.101 186.59C132.439 187.567 117.961 208.293 84.9892 208.643C83.3612 233.366 99.0012 250.222 117.595 248.046H207.711C210.493 247.99 212.931 250.475 212.822 253.255L211.156 340.212C210.899 346.72 216.61 352.536 223.124 352.396C228.795 352.396 233.728 348.37 234.854 342.822C244.755 294.068 245.46 261.335 244.307 242.461C243.55 230.055 234.022 220.04 221.653 218.65L160.56 211.78C157.336 211.502 155.129 207.89 156.349 204.893L178.915 145.182C173.698 133.911 170.52 122.081 169.431 109.79C169.182 106.978 171.26 104.496 174.071 104.247C176.879 103.993 179.365 106.075 179.614 108.887C180.651 120.594 183.811 131.857 189.016 142.581C197.178 158.871 209.43 177.595 229.872 177.443C249.734 177.875 283.38 170.586 298.679 166.987C296.47 162.691 295.625 157.612 296.385 152.786L231.459 151.203C229.179 151.148 227.212 149.588 226.637 147.381C226.534 146.985 216.199 107.571 205.611 89.1787C188.227 61.8687 143.193 68.9787 130.655 97.5597L90.5772 179.435Z" fill="#127F39"/>
<path d="M333.083 175.591C337.418 179.106 342.825 181.045 348.588 181.045H371.961V131.632H348.588C342.827 131.632 337.421 133.569 333.087 137.082C346.277 145.599 346.274 167.078 333.083 175.591Z" fill="#127F39"/>
<path d="M397.09 177.287V161.446H408.266C411.089 161.446 413.378 159.157 413.378 156.334C413.378 153.511 411.089 151.222 408.266 151.222H397.09V135.387C397.09 133.315 395.404 131.63 393.333 131.63H382.184V181.043H393.333C395.404 181.045 397.09 179.359 397.09 177.287Z" fill="#127F39"/>
<path d="M252.083 80.072C270.759 70.7341 278.328 48.0245 268.991 29.3486C259.653 10.6728 236.943 3.10295 218.267 12.4409C199.591 21.7788 192.022 44.4884 201.359 63.1642C210.697 81.84 233.407 89.4099 252.083 80.072Z" fill="#127F39"/>
</g>
<defs>
<clipPath id="clip0_3726_2711">
<rect width="468" height="468" fill="white"/>
</clipPath>
</defs>
</svg>
