<svg width="12" height="15" viewBox="0 0 12 15" fill="none" xmlns="http://www.w3.org/2000/svg">
<path d="M6 10.4029L3.62954 14.5001L2.5204 12.8202L0.510986 12.6996L2.88144 8.60242L6 10.4029Z" fill="#FF5754"/>
<path d="M5.99982 10.4029L8.37027 14.5001L9.47942 12.8202L11.4888 12.6996L9.11837 8.60242L5.99982 10.4029Z" fill="#E93754"/>
<path d="M6 11.303C8.98315 11.303 11.4015 8.88464 11.4015 5.90148C11.4015 2.91833 8.98315 0.5 6 0.5C3.01684 0.5 0.598511 2.91833 0.598511 5.90148C0.598511 8.88464 3.01684 11.303 6 11.303Z" fill="#FFE127"/>
<path d="M11.4013 5.90148C11.4013 8.88469 8.98302 11.303 5.99982 11.303V0.5C8.98302 0.5 11.4013 2.91828 11.4013 5.90148Z" fill="#FFBF2D"/>
<path d="M9.89963 5.90147L9.0517 7.1653L8.75748 8.65909L7.26369 8.95331L5.99986 9.80124L4.73604 8.95331L3.24225 8.65909L2.94803 7.1653L2.1001 5.90147L2.94803 4.63765L3.24225 3.14386L4.73604 2.84964L5.99986 2.00171L7.26369 2.84964L8.75748 3.14386L9.0517 4.63765L9.89963 5.90147Z" fill="#FFBF2D"/>
<path d="M9.89958 5.90147L9.05165 7.1653L8.75743 8.65909L7.26365 8.95331L5.99982 9.80124V2.00171L7.26365 2.84964L8.75743 3.14386L9.05165 4.63765L9.89958 5.90147Z" fill="#FFA032"/>
<path d="M8.02646 5.48244L7.79896 4.78216L6.81021 4.63861L6.36806 3.74255H5.63197L5.18982 4.63861L4.20107 4.78216L3.97357 5.48244L4.68888 6.1797L4.52017 7.16462L5.11572 7.5972L6.00002 7.13236L6.88431 7.5972L7.47986 7.16462L7.31115 6.1797L8.02646 5.48244Z" fill="#FFE127"/>
<path d="M7.31095 6.1797L7.47966 7.16462L6.88411 7.5972L5.99982 7.13236V3.74255H6.36786L6.81001 4.63861L7.79876 4.78216L8.02626 5.48244L7.31095 6.1797Z" fill="#FFBF2D"/>
</svg>
